<svg width="60" height="60" viewBox="0 0 60 60" fill="none" xmlns="http://www.w3.org/2000/svg">
<g clip-path="url(#clip0_509_1689)">
<path d="M29.6667 46.6668C38.8714 46.6668 46.3333 39.2049 46.3333 30.0002C46.3333 20.7954 38.8714 13.3335 29.6667 13.3335C20.4619 13.3335 13 20.7954 13 30.0002C13 39.2049 20.4619 46.6668 29.6667 46.6668Z" fill="#F7F9FD"/>
<path d="M3 29.9998C2.99772 24.1277 4.93375 18.4189 8.50766 13.7596C12.0816 9.10025 17.0935 5.75086 22.7656 4.2312C28.4377 2.71154 34.4528 3.10661 39.8775 5.35509C45.3021 7.60357 49.8329 11.5797 52.7667 16.6665M6.56667 43.3331C9.50046 48.4199 14.0312 52.3961 19.4559 54.6445C24.8805 56.893 30.8956 57.2881 36.5677 55.7684C42.2399 54.2488 47.2518 50.8994 50.8257 46.24C54.3996 41.5807 56.3356 35.872 56.3333 29.9998" stroke="#0957DE" stroke-width="3" stroke-linecap="round" stroke-linejoin="round"/>
<path d="M53 0V16.6667H36.3333M23 43.3333H6.33334V60" stroke="#0957DE" stroke-width="3" stroke-linecap="round" stroke-linejoin="round"/>
</g>
<defs>
<clipPath id="clip0_509_1689">
<rect width="60" height="60" fill="white"/>
</clipPath>
</defs>
</svg>
