<svg width="60" height="60" viewBox="0 0 60 60" fill="none" xmlns="http://www.w3.org/2000/svg">
<path d="M2.5 18.0556L17.1533 3.40222C17.7328 2.82746 18.5149 2.50344 19.3311 2.5H41.6689C42.4851 2.50344 43.2672 2.82746 43.8467 3.40222L58.5 18.0556H2.5Z" fill="#F7F9FD"/>
<path d="M2.5 18.0556L17.1533 3.40222C17.7328 2.82746 18.5149 2.50344 19.3311 2.5H41.6689C42.4851 2.50344 43.2672 2.82746 43.8467 3.40222L58.5 18.0556M2.5 18.0556H58.5M2.5 18.0556V55.3889C2.5 56.214 2.82778 57.0053 3.41122 57.5888C3.99467 58.1722 4.78599 58.5 5.61111 58.5H55.3889C56.214 58.5 57.0053 58.1722 57.5888 57.5888C58.1722 57.0053 58.5 56.214 58.5 55.3889V18.0556M39.8333 39.8333L30.5 36.7222L21.1667 39.8333V18.0556H39.8333V39.8333Z" stroke="#0957DE" stroke-width="3" stroke-linecap="round" stroke-linejoin="round"/>
</svg>
