<svg width="60" height="60" viewBox="0 0 60 60" fill="none" xmlns="http://www.w3.org/2000/svg">
<path d="M25.5 56.6398C37.9264 56.6398 48 44.7127 48 29.9999C48 15.287 37.9264 3.35986 25.5 3.35986C13.0736 3.35986 3 15.287 3 29.9999C3 44.7127 13.0736 56.6398 25.5 56.6398Z" fill="#F7F9FD"/>
<path d="M18 30L27 39L42 24M57 30C57 35.3401 55.4165 40.5603 52.4497 45.0004C49.4829 49.4405 45.2661 52.9012 40.3325 54.9447C35.3988 56.9883 29.9701 57.523 24.7326 56.4812C19.4951 55.4394 14.6841 52.8679 10.9081 49.0919C7.13211 45.3158 4.56061 40.5049 3.51881 35.2674C2.47701 30.0299 3.0117 24.6011 5.05526 19.6675C7.09883 14.7339 10.5595 10.5171 14.9996 7.55032C19.4397 4.58352 24.6599 3 30 3C37.1608 3 44.0284 5.84463 49.0919 10.9081C54.1554 15.9716 57 22.8391 57 30Z" stroke="#0957DE" stroke-width="3" stroke-linecap="round" stroke-linejoin="round"/>
</svg>
