<svg width="42" height="28" viewBox="0 0 42 28" fill="none" xmlns="http://www.w3.org/2000/svg">
<path fill-rule="evenodd" clip-rule="evenodd" d="M8.02804 9.79999L4.19995 18.2714H8.78271L9.35084 16.9207H10.6495L11.2176 18.2714H16.2619V17.2405L16.7114 18.2714H19.3207L19.7702 17.2187V18.2714H30.2611L31.5367 16.9558L32.7311 18.2714L38.1195 18.2823L34.2793 14.0594L38.1195 9.79999H32.8147L31.573 11.0913L30.4161 9.79999H19.0034L18.0234 11.9865L17.0204 9.79999H12.4472V10.7958L11.9385 9.79999H8.02804ZM23.694 11.0029H29.7183L31.5609 12.9933L33.4628 11.0029H35.3054L32.5058 14.0582L35.3054 17.0782H33.3793L31.5367 15.0647L29.625 17.0782H23.694V11.0029ZM25.1817 13.3712V12.2605H28.9407L30.5809 14.0352L28.868 15.8195H25.1817V14.6081H28.4682V13.3712H25.1817ZM8.91478 11.0029H11.1486L13.6878 16.7475V11.0029H16.1349L18.0961 15.1217L19.9036 11.0029H22.3385V17.0818H20.8569L20.8448 12.3184L18.6848 17.0818H17.3595L15.1875 12.3184V17.0818H12.1395L11.5617 15.719H8.43993L7.86329 17.0806H6.23026L8.91478 11.0029ZM8.97297 14.4592L10.0015 12.0314L11.0288 14.4592H8.97297Z" fill="#1F72CD"/>
</svg>
