<svg width="24" height="25" viewBox="0 0 24 25" fill="none" xmlns="http://www.w3.org/2000/svg">
<path d="M14.9508 13.0358L10.7108 8.7958C10.6178 8.70207 10.5072 8.62768 10.3854 8.57691C10.2635 8.52614 10.1328 8.5 10.0008 8.5C9.86878 8.5 9.73807 8.52614 9.61622 8.57691C9.49436 8.62768 9.38376 8.70207 9.29079 8.7958C9.10454 8.98316 9 9.23661 9 9.5008C9 9.76498 9.10454 10.0184 9.29079 10.2058L12.8308 13.7458L9.29079 17.2858C9.10454 17.4732 9 17.7266 9 17.9908C9 18.255 9.10454 18.5084 9.29079 18.6958C9.38423 18.7885 9.49505 18.8618 9.61689 18.9116C9.73872 18.9613 9.86919 18.9866 10.0008 18.9858C10.1324 18.9866 10.2629 18.9613 10.3847 18.9116C10.5065 18.8618 10.6174 18.7885 10.7108 18.6958L14.9508 14.4558C15.0445 14.3628 15.1189 14.2522 15.1697 14.1304C15.2205 14.0085 15.2466 13.8778 15.2466 13.7458C15.2466 13.6138 15.2205 13.4831 15.1697 13.3612C15.1189 13.2394 15.0445 13.1288 14.9508 13.0358Z" fill="#0957DE"/>
</svg>
