<svg width="40" height="40" viewBox="0 0 40 40" fill="none" xmlns="http://www.w3.org/2000/svg">
<path d="M29.8666 11.0333C29.6974 10.6261 29.3738 10.3025 28.9666 10.1333C28.7662 10.0479 28.551 10.0026 28.3332 10H11.6666C11.2245 10 10.8006 10.1756 10.4881 10.4882C10.1755 10.8007 9.9999 11.2246 9.9999 11.6667C9.9999 12.1087 10.1755 12.5326 10.4881 12.8452C10.8006 13.1577 11.2245 13.3333 11.6666 13.3333H24.3166L10.4832 27.15C10.327 27.3049 10.203 27.4893 10.1184 27.6924C10.0338 27.8955 9.99023 28.1133 9.99023 28.3333C9.99023 28.5534 10.0338 28.7712 10.1184 28.9743C10.203 29.1774 10.327 29.3617 10.4832 29.5167C10.6382 29.6729 10.8225 29.7969 11.0256 29.8815C11.2287 29.9661 11.4465 30.0097 11.6666 30.0097C11.8866 30.0097 12.1044 29.9661 12.3075 29.8815C12.5106 29.7969 12.695 29.6729 12.8499 29.5167L26.6666 15.6833V28.3333C26.6666 28.7754 26.8422 29.1993 27.1547 29.5118C27.4673 29.8244 27.8912 30 28.3332 30C28.7753 30 29.1992 29.8244 29.5117 29.5118C29.8243 29.1993 29.9999 28.7754 29.9999 28.3333V11.6667C29.9973 11.4489 29.952 11.2337 29.8666 11.0333V11.0333Z" fill="#0957DE"/>
</svg>
