<svg width="24" height="24" viewBox="0 0 24 24" fill="none" xmlns="http://www.w3.org/2000/svg">
<path d="M14.5401 11.4605L11.3052 8.22568C11.2343 8.15417 11.1499 8.09741 11.0569 8.05867C10.964 8.01994 10.8643 8 10.7635 8C10.6628 8 10.5631 8.01994 10.4701 8.05867C10.3772 8.09741 10.2928 8.15417 10.2219 8.22568C10.0798 8.36862 10 8.56199 10 8.76354C10 8.9651 10.0798 9.15847 10.2219 9.30141L12.9226 12.0022L10.2219 14.703C10.0798 14.8459 10 15.0393 10 15.2409C10 15.4424 10.0798 15.6358 10.2219 15.7787C10.2931 15.8494 10.3777 15.9054 10.4706 15.9434C10.5636 15.9813 10.6631 16.0006 10.7635 16C10.8639 16.0006 10.9635 15.9813 11.0564 15.9434C11.1494 15.9054 11.2339 15.8494 11.3052 15.7787L14.5401 12.5439C14.6116 12.473 14.6683 12.3886 14.7071 12.2956C14.7458 12.2026 14.7657 12.1029 14.7657 12.0022C14.7657 11.9015 14.7458 11.8018 14.7071 11.7088C14.6683 11.6158 14.6116 11.5314 14.5401 11.4605Z" fill="#727C89"/>
</svg>
