<svg width="24" height="24" viewBox="0 0 24 24" fill="none" xmlns="http://www.w3.org/2000/svg">
<path d="M7.62921 10.9458L13.2892 5.2958C13.3822 5.20207 13.4928 5.12768 13.6146 5.07691C13.7365 5.02614 13.8672 5 13.9992 5C14.1312 5 14.2619 5.02614 14.3838 5.07691C14.5056 5.12768 14.6162 5.20207 14.7092 5.2958C14.8955 5.48316 15 5.73661 15 6.0008C15 6.26498 14.8955 6.51844 14.7092 6.7058L9.75921 11.7058L14.7092 16.6558C14.8955 16.8432 15 17.0966 15 17.3608C15 17.625 14.8955 17.8784 14.7092 18.0658C14.6166 18.1603 14.5061 18.2355 14.3843 18.287C14.2624 18.3384 14.1315 18.3652 13.9992 18.3658C13.8669 18.3652 13.736 18.3384 13.6141 18.287C13.4923 18.2355 13.3818 18.1603 13.2892 18.0658L7.62921 12.4158C7.5277 12.3222 7.44669 12.2085 7.39129 12.082C7.33588 11.9555 7.30727 11.8189 7.30727 11.6808C7.30727 11.5427 7.33588 11.4061 7.39129 11.2796C7.44669 11.1531 7.5277 11.0394 7.62921 10.9458V10.9458Z" fill="#0957DE"/>
</svg>
