<svg width="60" height="60" viewBox="0 0 60 60" fill="none" xmlns="http://www.w3.org/2000/svg">
<path d="M15 44L12 49.3684H2V4H21.7368V43.5L15 44Z" fill="#F7F9FD"/>
<path d="M48 49.3684H53.1053C53.887 49.3684 54.6366 49.0579 55.1894 48.5052C55.7421 47.9524 56.0526 47.2027 56.0526 46.4211V34.6316L50.9832 24.4632C50.736 23.9726 50.3567 23.5609 49.8879 23.2745C49.4192 22.988 48.8798 22.8383 48.3305 22.8421H41.3158V42.5M41.3158 42.5V43.4737C39.7524 43.4737 38.2531 44.0947 37.1476 45.2002C36.0421 46.3057 35.4211 47.805 35.4211 49.3684H23.6316C23.6316 47.805 23.0105 46.3057 21.905 45.2002C20.7996 44.0947 19.3002 43.4737 17.7368 43.4737C16.1735 43.4737 14.6741 44.0947 13.5686 45.2002C12.4632 46.3057 11.8421 47.805 11.8421 49.3684H5.94737C5.16568 49.3684 4.416 49.0579 3.86326 48.5052C3.31053 47.9524 3 47.2027 3 46.4211V36.5M41.3158 42.5V6.94737C41.3158 6.16568 41.0053 5.416 40.4525 4.86327C39.8998 4.31053 39.1501 4 38.3684 4H5.94737C5.16568 4 4.416 4.31053 3.86326 4.86327C3.31053 5.416 3 6.16568 3 6.94737V9.5" stroke="#0957DE" stroke-width="3" stroke-linecap="round" stroke-linejoin="round"/>
<path d="M23.6315 49.3684C23.6315 50.5342 23.2858 51.6739 22.6381 52.6433C21.9904 53.6127 21.0697 54.3682 19.9926 54.8144C18.9155 55.2606 17.7302 55.3773 16.5868 55.1498C15.4433 54.9224 14.393 54.361 13.5686 53.5366C12.7442 52.7122 12.1828 51.6618 11.9553 50.5184C11.7279 49.3749 11.8446 48.1897 12.2908 47.1125C12.7369 46.0354 13.4925 45.1148 14.4618 44.4671C15.4312 43.8194 16.5709 43.4736 17.7368 43.4736C19.3002 43.4736 20.7995 44.0947 21.905 45.2002C23.0105 46.3056 23.6315 47.805 23.6315 49.3684ZM41.3157 43.4736C40.1499 43.4736 39.0102 43.8194 38.0408 44.4671C37.0714 45.1148 36.3159 46.0354 35.8697 47.1125C35.4235 48.1897 35.3068 49.3749 35.5343 50.5184C35.7617 51.6618 36.3231 52.7122 37.1475 53.5366C37.9719 54.361 39.0223 54.9224 40.1657 55.1498C41.3092 55.3773 42.4944 55.2606 43.5715 54.8144C44.6487 54.3682 45.5693 53.6127 46.217 52.6433C46.8647 51.6739 47.2105 50.5342 47.2105 49.3684C47.2105 47.805 46.5894 46.3056 45.4839 45.2002C44.3785 44.0947 42.8791 43.4736 41.3157 43.4736Z" stroke="#0957DE" stroke-width="3" stroke-linecap="round" stroke-linejoin="round"/>
<path d="M2 16H27.5" stroke="#0957DE" stroke-width="3" stroke-linecap="round"/>
<path d="M13 23H27.5M13 23H27.5" stroke="#0957DE" stroke-width="3" stroke-linecap="round"/>
<path d="M3 30H33.5" stroke="#0957DE" stroke-width="3" stroke-linecap="round"/>
</svg>
