<svg width="60" height="60" viewBox="0 0 60 60" fill="none" xmlns="http://www.w3.org/2000/svg">
<path d="M50.7235 30.1389C49.9877 35.3383 47.9244 40.2603 44.7326 44.4301C41.5407 48.5999 37.3282 51.8767 32.5012 53.9445L30.0568 55L27.6124 53.9445C22.7854 51.8767 18.5729 48.5999 15.3811 44.4301C12.1892 40.2603 10.1259 35.3383 9.39014 30.1389C13.2345 37.3311 19.6078 42.8435 27.279 45.6111L30.0568 46.6667L32.8346 45.6111C40.5058 42.8435 46.8791 37.3311 50.7235 30.1389Z" fill="#F7F9FD"/>
<path d="M50.0012 10L30.0567 5L10.1123 10C9.49597 10.1521 8.95033 10.5107 8.56622 11.0161C8.1821 11.5215 7.98269 12.1432 8.00118 12.7778L9.19562 28.1111C9.62595 33.671 11.5696 39.007 14.8159 43.5412C18.0623 48.0753 22.4876 51.6346 27.6123 53.8333L30.0567 55L32.5012 53.9444C37.6259 51.7457 42.0512 48.1864 45.2975 43.6523C48.5439 39.1182 50.4875 33.7821 50.9178 28.2222L52.1123 12.8889C52.1572 12.2358 51.9701 11.5878 51.5838 11.0593C51.1976 10.5307 50.6371 10.1556 50.0012 10Z" stroke="#0957DE" stroke-width="3" stroke-linecap="round" stroke-linejoin="round"/>
<path d="M21.7234 27.2222L27.2789 32.7777L38.3901 21.6666" stroke="#0957DE" stroke-width="3" stroke-linecap="round" stroke-linejoin="round"/>
</svg>
