<svg width="60" height="60" viewBox="0 0 60 60" fill="none" xmlns="http://www.w3.org/2000/svg">
<path d="M47.7583 18.6597C47.1193 16.7149 47.5638 14.1866 46.3692 12.5474C45.1745 10.9082 42.6184 10.547 41.1182 9.32458C39.6179 8.10212 38.3398 5.82391 36.395 5.18489C34.4502 4.54588 32.2553 5.76834 30.1438 5.76834C28.0323 5.76834 25.7819 4.57367 23.8926 5.18489C22.0034 5.79612 20.6698 8.15769 19.0306 9.32458C17.3914 10.4915 14.8353 10.9082 13.6407 12.5474C12.446 14.1866 12.8905 16.7149 12.2515 18.6597C11.6125 20.6045 9.77881 22.3271 9.77881 24.4386C9.77881 26.5501 11.6403 28.3282 12.2515 30.2175C12.8627 32.1067 12.446 34.6905 13.6407 36.3297C14.8353 37.969 17.3914 38.3579 19.0306 39.5526C20.6698 40.7473 21.8089 43.0533 23.7537 43.6923C25.6985 44.3313 27.8934 43.1088 30.0049 43.1088C32.1164 43.1088 34.3669 44.3035 36.2561 43.6923C38.1454 43.081 39.34 40.7195 40.9792 39.5526C42.6184 38.3857 45.1745 37.969 46.3692 36.3297C47.5638 34.6905 47.1193 32.1623 47.7583 30.2175C48.3973 28.2726 50.231 26.5501 50.231 24.4386C50.231 22.3271 48.3695 20.5489 47.7583 18.6597ZM30.0049 32.7735C28.3564 32.7735 26.7449 32.2847 25.3743 31.3688C24.0036 30.453 22.9353 29.1512 22.3044 27.6282C21.6736 26.1052 21.5085 24.4293 21.8301 22.8125C22.1517 21.1957 22.9456 19.7106 24.1112 18.5449C25.2769 17.3792 26.762 16.5854 28.3788 16.2638C29.9957 15.9422 31.6715 16.1073 33.1945 16.7381C34.7176 17.369 36.0193 18.4373 36.9351 19.8079C37.851 21.1786 38.3398 22.7901 38.3398 24.4386C38.3398 26.6491 37.4617 28.7692 35.8986 30.3323C34.3355 31.8954 32.2155 32.7735 30.0049 32.7735Z" fill="#F7F9FD"/>
<path d="M24.4482 43.8868L18.8916 55L13.3349 49.4434H5L12.8071 33.9404M35.5614 43.8868L41.118 55L46.6747 49.4434H55.0096L47.2025 33.9404M47.7582 18.6875C47.1192 16.7427 47.5637 14.2144 46.369 12.5752C45.1744 10.936 42.6183 10.547 41.118 9.32458C39.6177 8.10212 38.3397 5.82391 36.3949 5.18489C34.4501 4.54588 32.2552 5.76834 30.1437 5.76834C28.0322 5.76834 25.7818 4.57367 23.8925 5.18489C22.0033 5.79612 20.6697 8.15769 19.0305 9.32458C17.3913 10.4915 14.8352 10.9082 13.6405 12.5474C12.4459 14.1866 12.8904 16.7149 12.2514 18.6597C11.6124 20.6045 9.77869 22.3271 9.77869 24.4386C9.77869 26.5501 11.6402 28.3282 12.2514 30.2175C12.8626 32.1067 12.4459 34.6905 13.6405 36.3298C14.8352 37.969 17.3913 38.3579 19.0305 39.5526C20.6697 40.7473 21.8088 43.0533 23.7536 43.6923C25.6984 44.3313 27.8933 43.1088 30.0048 43.1088C32.1163 43.1088 34.3667 44.3035 36.256 43.6923C38.1452 43.081 39.3399 40.7195 40.9791 39.5526C42.6183 38.3857 45.1744 37.969 46.369 36.3298C47.5637 34.6905 47.1192 32.1623 47.7582 30.2175C48.3972 28.2727 50.2309 26.5501 50.2309 24.4386C50.2309 22.3271 48.3694 20.549 47.7582 18.6597V18.6875ZM30.0048 32.7735C28.3563 32.7735 26.7448 32.2847 25.3742 31.3688C24.0035 30.453 22.9352 29.1512 22.3043 27.6282C21.6735 26.1052 21.5084 24.4293 21.83 22.8125C22.1516 21.1957 22.9454 19.7106 24.1111 18.5449C25.2768 17.3792 26.7619 16.5854 28.3787 16.2638C29.9955 15.9422 31.6714 16.1073 33.1944 16.7381C34.7174 17.369 36.0192 18.4373 36.935 19.8079C37.8509 21.1786 38.3397 22.7901 38.3397 24.4386C38.3397 26.6491 37.4616 28.7692 35.8985 30.3323C34.3354 31.8954 32.2154 32.7735 30.0048 32.7735Z" stroke="#0957DE" stroke-width="3" stroke-linecap="round" stroke-linejoin="round"/>
</svg>
