<svg width="60" height="61" viewBox="0 0 60 61" fill="none" xmlns="http://www.w3.org/2000/svg">
<path d="M51.2019 3.5C47.3561 3.5 12.4667 4 8.50001 2.5C6.71858 8.92009 6.05323 7.86627 3.50001 16C3.75673 16.9601 3.15067 17.9926 3.76164 18.7765C4.37261 19.5604 5.13493 20.2134 6.00332 20.6968C6.8717 21.1802 7.82841 21.4841 8.81657 21.5904C9.75757 21.6364 10.6981 21.4907 11.5811 21.1621C12.464 20.8335 13.2709 20.3288 13.9528 19.6787C14.6347 19.0286 15.1773 18.2466 15.5477 17.3804C15.9181 16.5141 16.1085 15.5816 16.1074 14.6394C16.1074 16.4829 16.8397 18.2509 18.1432 19.5545C19.4468 20.8581 21.2148 21.5904 23.0583 21.5904C24.9018 21.5904 26.6698 20.8581 27.9734 19.5545C29.2769 18.2509 30.0093 16.4829 30.0093 14.6394C30.0093 16.4829 30.7416 18.2509 32.0451 19.5545C33.3487 20.8581 35.1167 21.5904 36.9602 21.5904C38.8037 21.5904 40.5717 20.8581 41.8753 19.5545C43.1788 18.2509 43.9112 16.4829 43.9112 14.6394C43.91 15.5816 44.1004 16.5141 44.4708 17.3804C44.8412 18.2466 45.3838 19.0286 46.0657 19.6787C46.7476 20.3288 47.5545 20.8335 48.4375 21.1621C49.3204 21.4907 50.261 21.6364 51.202 21.5904C52.1926 21.4915 53.1531 21.1942 54.0263 20.7161C54.8996 20.238 55.6676 19.589 56.2845 18.8076C56.9015 18.0263 55.2374 16.4603 55.5 15.5C53.3826 8.8315 53.1176 10.2291 51.2019 3.5Z" fill="#F7F9FD"/>
<path d="M51.6344 33.5904V55.2156C51.6344 56.035 51.3089 56.8208 50.7296 57.4001C50.1502 57.9795 49.3644 58.3049 48.5451 58.3049H11.4733C10.654 58.3049 9.86822 57.9795 9.28886 57.4001C8.7095 56.8208 8.38402 56.035 8.38402 55.2156V33.5904M57.1643 22.0982L52.2832 4.9525C52.0963 4.28428 51.6899 3.69842 51.1295 3.28931C50.5691 2.8802 49.8872 2.67166 49.1939 2.6973H10.701C10.0076 2.67166 9.32579 2.8802 8.76536 3.28931C8.20494 3.69842 7.79856 4.28428 7.61169 4.9525L2.85415 22.0982C2.55391 23.1053 2.35723 24.1404 2.26718 25.1875C2.12896 26.1717 2.19003 27.1737 2.44675 28.1338C2.70347 29.0939 3.15061 29.9926 3.76158 30.7765C4.37255 31.5604 5.13488 32.2135 6.00327 32.6969C6.87165 33.1803 7.82836 33.4841 8.81652 33.5904C9.75752 33.6365 10.6981 33.4908 11.581 33.1621C12.464 32.8335 13.2709 32.3288 13.9528 31.6787C14.6347 31.0286 15.1773 30.2467 15.5476 29.3804C15.918 28.5141 16.1084 27.5816 16.1073 26.6395C16.1073 28.483 16.8396 30.251 18.1432 31.5545C19.4467 32.8581 21.2148 33.5904 23.0583 33.5904C24.9018 33.5904 26.6698 32.8581 27.9733 31.5545C29.2769 30.251 30.0092 28.483 30.0092 26.6395C30.0092 28.483 30.7415 30.251 32.0451 31.5545C33.3487 32.8581 35.1167 33.5904 36.9602 33.5904C38.8037 33.5904 40.5717 32.8581 41.8752 31.5545C43.1788 30.251 43.9111 28.483 43.9111 26.6395C43.91 27.5816 44.1004 28.5141 44.4708 29.3804C44.8412 30.2467 45.3838 31.0286 46.0657 31.6787C46.7475 32.3288 47.5545 32.8335 48.4374 33.1621C49.3204 33.4908 50.2609 33.6365 51.2019 33.5904C52.1925 33.4916 53.1531 33.1942 54.0263 32.7161C54.8995 32.238 55.6675 31.589 56.2845 30.8077C56.9015 30.0264 57.3548 29.1288 57.6174 28.1685C57.88 27.2083 57.9465 26.2049 57.813 25.2184C57.7049 24.1587 57.4875 23.1131 57.1643 22.0982Z" stroke="#0957DE" stroke-width="3" stroke-linecap="round" stroke-linejoin="round"/>
</svg>
