<svg width="42" height="28" viewBox="0 0 42 28" fill="none" xmlns="http://www.w3.org/2000/svg">
<path d="M15.4796 7.73212C15.488 6.43044 14.4397 5.36837 13.138 5.35992C11.8363 5.35147 10.7742 6.39984 10.7658 7.70151C10.7573 9.00319 11.8057 10.0653 13.1074 10.0737C14.4091 10.0822 15.4711 9.0338 15.4796 7.73212Z" fill="#151515"/>
<path d="M17.332 6.11572H19.9666V21.0648H17.332V6.11572Z" fill="#151515"/>
<path d="M22.3047 11.2734H24.9393V21.0647H22.3047V11.2734Z" fill="#151515"/>
<path d="M10.4824 11.1756C9.65757 11.1745 8.84536 11.3783 8.11883 11.7689V6.11591H5.48389V16.1722C5.48362 17.1607 5.7765 18.1271 6.32549 18.9491C6.87447 19.7712 7.6549 20.412 8.56808 20.7905C9.48126 21.169 10.4862 21.2682 11.4557 21.0755C12.4253 20.8829 13.316 20.4071 14.0151 19.7082C14.7142 19.0094 15.1904 18.1189 15.3834 17.1494C15.5764 16.1799 15.4776 15.175 15.0995 14.2617C14.7214 13.3483 14.0809 12.5676 13.259 12.0183C12.4372 11.469 11.4709 11.1758 10.4824 11.1756ZM10.4824 18.5777C10.0067 18.5777 9.54174 18.4366 9.14622 18.1723C8.7507 17.9081 8.44242 17.5325 8.26037 17.093C8.07832 16.6535 8.03067 16.1699 8.12345 15.7034C8.21623 15.2368 8.44526 14.8083 8.7816 14.4719C9.11793 14.1355 9.54646 13.9064 10.013 13.8136C10.4795 13.7207 10.9631 13.7683 11.4026 13.9503C11.8421 14.1323 12.2178 14.4405 12.4821 14.836C12.7464 15.2315 12.8875 15.6965 12.8876 16.1722C12.8877 16.4881 12.8256 16.8009 12.7048 17.0928C12.584 17.3847 12.4068 17.6499 12.1834 17.8733C11.9601 18.0967 11.6949 18.2739 11.403 18.3947C11.1111 18.5156 10.7983 18.5777 10.4824 18.5777Z" fill="#151515"/>
<path d="M15.4796 7.73212C15.488 6.43044 14.4397 5.36837 13.138 5.35992C11.8363 5.35147 10.7742 6.39984 10.7658 7.70151C10.7573 9.00319 11.8057 10.0653 13.1074 10.0737C14.4091 10.0822 15.4711 9.0338 15.4796 7.73212Z" fill="url(#paint0_linear_514_1856)"/>
<path d="M17.332 6.11572H19.9666V21.0648H17.332V6.11572Z" fill="#151515"/>
<path d="M22.3047 11.2734H24.9393V21.0647H22.3047V11.2734Z" fill="#151515"/>
<path d="M10.4822 11.1756C9.65733 11.1745 8.84512 11.3783 8.11858 11.7689V6.11591H5.48364V16.1722C5.48338 17.1607 5.77626 18.1271 6.32524 18.9491C6.87423 19.7712 7.65466 20.412 8.56784 20.7905C9.48102 21.169 10.4859 21.2682 11.4555 21.0755C12.425 20.8829 13.3157 20.4071 14.0148 19.7082C14.714 19.0094 15.1901 18.1189 15.3832 17.1494C15.5762 16.1799 15.4774 15.175 15.0993 14.2617C14.7211 13.3483 14.0806 12.5676 13.2588 12.0183C12.437 11.469 11.4707 11.1758 10.4822 11.1756ZM10.4822 18.5777C10.0065 18.5777 9.54149 18.4366 9.14598 18.1723C8.75046 17.9081 8.44218 17.5325 8.26013 17.093C8.07808 16.6535 8.03043 16.1699 8.12321 15.7034C8.21598 15.2368 8.44502 14.8083 8.78135 14.4719C9.11769 14.1355 9.54622 13.9064 10.0128 13.8136C10.4793 13.7207 10.9629 13.7683 11.4024 13.9503C11.8419 14.1323 12.2175 14.4405 12.4818 14.836C12.7462 15.2315 12.8873 15.6965 12.8873 16.1722C12.8875 16.4881 12.8254 16.8009 12.7045 17.0928C12.5837 17.3847 12.4066 17.6499 12.1832 17.8733C11.9598 18.0967 11.6946 18.2739 11.4028 18.3947C11.1109 18.5156 10.7981 18.5777 10.4822 18.5777Z" fill="#151515"/>
<path d="M33.606 21.0654H36.9998L32.9223 15.7992L36.6197 11.2742H33.5415L29.9107 15.8274V6.11768H27.2754V21.0654H29.9107L29.9087 15.8401L33.606 21.0654Z" fill="#151515"/>
<defs>
<linearGradient id="paint0_linear_514_1856" x1="11.4432" y1="9.36995" x2="14.8022" y2="6.05897" gradientUnits="userSpaceOnUse">
<stop stop-color="#E52F08"/>
<stop offset="1" stop-color="#E94F96"/>
</linearGradient>
</defs>
</svg>
