<svg width="32" height="32" viewBox="0 0 32 32" fill="none" xmlns="http://www.w3.org/2000/svg">
<path d="M26.1184 7.27666H24.101L21.5719 2.23321C21.4947 2.04763 21.3799 1.87998 21.2349 1.74075C21.0899 1.60151 20.9178 1.49367 20.7292 1.42398C20.5407 1.35429 20.3398 1.32423 20.1391 1.33569C19.9384 1.34715 19.7422 1.39988 19.5628 1.49059C19.3834 1.5813 19.2246 1.70803 19.0964 1.86287C18.9682 2.01771 18.8733 2.19733 18.8177 2.3905C18.762 2.58367 18.7468 2.78624 18.773 2.98556C18.7992 3.18487 18.8662 3.37664 18.9698 3.54889L20.8264 7.27666H10.9441L12.8007 3.54889C12.9426 3.20814 12.9504 2.82632 12.8224 2.4801C12.6944 2.13388 12.4402 1.84888 12.1108 1.68233C11.7814 1.51577 11.4012 1.48 11.0465 1.58218C10.6918 1.68436 10.3889 1.91693 10.1986 2.23321L7.66956 7.27666H5.65218C4.61891 7.29238 3.62438 7.67246 2.844 8.34987C2.06361 9.02728 1.5475 9.9585 1.38669 10.9793C1.22588 12.0001 1.4307 13.0449 1.96503 13.9294C2.49935 14.8139 3.32886 15.4814 4.30726 15.814L5.38904 26.7195C5.49813 27.8051 6.00791 28.811 6.81885 29.5408C7.6298 30.2707 8.68366 30.6721 9.77465 30.6666H22.0251C23.1161 30.6721 24.17 30.2707 24.9809 29.5408C25.7919 28.811 26.3017 27.8051 26.4107 26.7195L27.4925 15.814C28.473 15.4804 29.3039 14.8105 29.8378 13.923C30.3718 13.0356 30.5744 11.9877 30.4098 10.9652C30.2452 9.94261 29.724 9.0113 28.9386 8.33619C28.1531 7.66108 27.154 7.28574 26.1184 7.27666ZM23.4724 26.4272C23.436 26.789 23.2661 27.1243 22.9958 27.3676C22.7255 27.6109 22.3742 27.7447 22.0105 27.7428H9.76003C9.39637 27.7447 9.04508 27.6109 8.77477 27.3676C8.50445 27.1243 8.33452 26.789 8.29816 26.4272L7.26023 16.0479H24.5103L23.4724 26.4272ZM26.1184 13.1241H5.65218C5.26446 13.1241 4.89263 12.9701 4.61848 12.696C4.34432 12.4218 4.19031 12.05 4.19031 11.6623C4.19031 11.2746 4.34432 10.9027 4.61848 10.6286C4.89263 10.3544 5.26446 10.2004 5.65218 10.2004H26.1184C26.5061 10.2004 26.8779 10.3544 27.1521 10.6286C27.4262 10.9027 27.5802 11.2746 27.5802 11.6623C27.5802 12.05 27.4262 12.4218 27.1521 12.696C26.8779 12.9701 26.5061 13.1241 26.1184 13.1241Z" fill="white"/>
</svg>
