<svg width="50" height="50" viewBox="0 0 50 50" fill="none" xmlns="http://www.w3.org/2000/svg">
<path d="M41.6667 27.0833H16.6667L18.2708 31.9166C18.4158 32.3478 18.6979 32.7197 19.0741 32.9755C19.4503 33.2313 19.8999 33.357 20.3542 33.3333H38.1875C38.6242 33.3344 39.0503 33.1982 39.4055 32.944C39.7606 32.6898 40.0269 32.3304 40.1667 31.9166L41.6667 27.0833Z" fill="#F7F9FD"/>
<path d="M43.75 16.6667L39.9792 31.75C39.8651 32.2123 39.5962 32.6215 39.2171 32.9096C38.838 33.1977 38.3717 33.3472 37.8958 33.3334H20.4167C19.9351 33.3451 19.4643 33.1896 19.0844 32.8934C18.7046 32.5971 18.4392 32.1783 18.3333 31.7084L12.875 7.87502C12.7706 7.41215 12.5113 6.99877 12.1401 6.70328C11.7688 6.40779 11.3078 6.24789 10.8333 6.25002H6.25M25 14.5834L29.1667 18.75L37.5 10.4167" stroke="#0957DE" stroke-width="3" stroke-linecap="round" stroke-linejoin="round"/>
<path d="M25 42.7084C25 42.9144 24.9389 43.1158 24.8244 43.2871C24.71 43.4584 24.5473 43.5919 24.357 43.6708C24.1666 43.7496 23.9572 43.7703 23.7551 43.7301C23.553 43.6899 23.3674 43.5907 23.2218 43.445C23.0761 43.2993 22.9769 43.1137 22.9367 42.9116C22.8965 42.7096 22.9171 42.5001 22.9959 42.3098C23.0748 42.1194 23.2083 41.9568 23.3796 41.8423C23.5509 41.7278 23.7523 41.6667 23.9583 41.6667C24.2346 41.6667 24.4995 41.7765 24.6949 41.9718C24.8902 42.1672 25 42.4321 25 42.7084ZM34.375 41.6667C34.169 41.6667 33.9676 41.7278 33.7963 41.8423C33.625 41.9568 33.4915 42.1194 33.4126 42.3098C33.3338 42.5001 33.3131 42.7096 33.3533 42.9116C33.3935 43.1137 33.4927 43.2993 33.6384 43.445C33.7841 43.5907 33.9697 43.6899 34.1718 43.7301C34.3738 43.7703 34.5833 43.7496 34.7736 43.6708C34.964 43.5919 35.1266 43.4584 35.2411 43.2871C35.3556 43.1158 35.4167 42.9144 35.4167 42.7084C35.4167 42.4321 35.3069 42.1672 35.1116 41.9718C34.9162 41.7765 34.6513 41.6667 34.375 41.6667Z" stroke="#0957DE" stroke-width="4" stroke-linecap="round" stroke-linejoin="round"/>
</svg>
