<svg width="30" height="30" viewBox="0 0 30 30" fill="none" xmlns="http://www.w3.org/2000/svg">
<path d="M24.486 6.82189H22.5947L20.2238 2.09365C20.1513 1.91967 20.0438 1.7625 19.9078 1.63197C19.7719 1.50143 19.6105 1.40034 19.4337 1.335C19.257 1.26966 19.0686 1.24148 18.8804 1.25223C18.6923 1.26297 18.5084 1.31241 18.3402 1.39745C18.172 1.48249 18.0232 1.6013 17.903 1.74646C17.7828 1.89162 17.6938 2.06001 17.6416 2.24111C17.5895 2.42221 17.5752 2.61212 17.5998 2.79898C17.6243 2.98584 17.6871 3.16562 17.7843 3.32711L19.5248 6.82189H10.2602L12.0008 3.32711C12.1338 3.00765 12.141 2.6497 12.0211 2.32511C11.9011 2.00053 11.6628 1.73334 11.354 1.5772C11.0451 1.42106 10.6887 1.38752 10.3562 1.48331C10.0236 1.57911 9.73967 1.79715 9.56126 2.09365L7.19029 6.82189H5.29899C4.3303 6.83662 3.39793 7.19295 2.66632 7.82802C1.93471 8.46309 1.45086 9.33611 1.3001 10.2931C1.14934 11.2501 1.34136 12.2296 1.84229 13.0588C2.34322 13.8881 3.12089 14.5138 4.03813 14.8256L5.0523 25.0496C5.15457 26.0673 5.6325 27.0103 6.39275 27.6946C7.15301 28.3788 8.14101 28.7551 9.16381 28.7499H20.6486C21.6714 28.7551 22.6594 28.3788 23.4197 27.6946C24.1799 27.0103 24.6579 26.0673 24.7601 25.0496L25.7743 14.8256C26.6936 14.5129 27.4724 13.8849 27.973 13.0529C28.4736 12.2208 28.6636 11.2385 28.5093 10.2799C28.355 9.32122 27.8663 8.44811 27.13 7.8152C26.3936 7.18228 25.457 6.8304 24.486 6.82189ZM22.0054 24.7755C21.9713 25.1147 21.812 25.4291 21.5586 25.6571C21.3052 25.8852 20.9759 26.0107 20.6349 26.0089H9.15011C8.80917 26.0107 8.47984 25.8852 8.22642 25.6571C7.973 25.4291 7.81369 25.1147 7.7796 24.7755L6.80655 15.0449H22.9785L22.0054 24.7755ZM24.486 12.3039H5.29899C4.93551 12.3039 4.58692 12.1595 4.3299 11.9025C4.07288 11.6455 3.92849 11.2969 3.92849 10.9334C3.92849 10.5699 4.07288 10.2213 4.3299 9.96431C4.58692 9.70729 4.93551 9.5629 5.29899 9.5629H24.486C24.8495 9.5629 25.1981 9.70729 25.4551 9.96431C25.7122 10.2213 25.8565 10.5699 25.8565 10.9334C25.8565 11.2969 25.7122 11.6455 25.4551 11.9025C25.1981 12.1595 24.8495 12.3039 24.486 12.3039Z" fill="#0B1A48"/>
</svg>
