<svg width="20" height="20" viewBox="0 0 20 20" fill="none" xmlns="http://www.w3.org/2000/svg">
<rect x="5" y="7.5" width="10" height="8.75" fill="white"/>
<path d="M9.99996 3.33325C5.41663 3.33325 1.66663 7.08325 1.66663 11.6666C1.66663 16.2499 5.41663 19.9999 9.99996 19.9999C14.5833 19.9999 18.3333 16.2499 18.3333 11.6666C18.3333 7.08325 14.5833 3.33325 9.99996 3.33325ZM13.5 10.2499L9.49996 14.2499C9.16663 14.5833 8.66663 14.5833 8.33329 14.2499L6.49996 12.4166C6.16663 12.0833 6.16663 11.5833 6.49996 11.2499C6.83329 10.9166 7.33329 10.9166 7.66663 11.2499L8.91663 12.4999L12.3333 9.08325C12.6666 8.74992 13.1666 8.74992 13.5 9.08325C13.8333 9.41658 13.8333 9.91659 13.5 10.2499Z" fill="#0957DE"/>
</svg>
