<svg width="60" height="60" viewBox="0 0 60 60" fill="none" xmlns="http://www.w3.org/2000/svg">
<path d="M50 25C48.3 23.475 45.925 22.775 44.225 21.3C42.125 19.4 40.65 15.725 38.125 14.7C35.6 13.675 32.725 15.625 30.025 15.625C27.325 15.625 24.35 13.725 21.9 14.7C19.45 15.675 17.9 19.375 15.8 21.275C14.075 22.75 11.7 23.45 10 25C10.1552 24.065 10.2554 23.1217 10.3 22.175C10.2868 20.7788 10.5502 19.3938 11.075 18.1C11.8549 17.15 12.8606 16.4108 14 15.95C15.2565 15.3601 16.4327 14.6124 17.5 13.725C18.5115 12.7211 19.4163 11.6152 20.2 10.425C20.8124 9.25836 21.6954 8.25538 22.775 7.5C23.0063 7.45606 23.2437 7.45606 23.475 7.5C24.3262 7.57548 25.1654 7.75171 25.975 8.025C27.282 8.42224 28.6349 8.64911 30 8.7C31.3233 8.64069 32.6337 8.41388 33.9 8.025C34.9629 7.56888 36.1237 7.3883 37.275 7.5C38.3033 8.24929 39.1563 9.21322 39.775 10.325C40.5508 11.5584 41.4651 12.6992 42.5 13.725C43.5606 14.5969 44.7183 15.3435 45.95 15.95C47.0886 16.4249 48.0993 17.1615 48.9 18.1C49.3904 19.4029 49.6444 20.7829 49.65 22.175C49.775 23.025 49.85 24 50 25Z" fill="#F7F9FD"/>
<path d="M25 23.75C25 23.9972 24.9267 24.2389 24.7893 24.4445C24.652 24.65 24.4568 24.8102 24.2284 24.9049C23.9999 24.9995 23.7486 25.0242 23.5061 24.976C23.2637 24.9278 23.0409 24.8087 22.8661 24.6339C22.6913 24.4591 22.5723 24.2363 22.524 23.9939C22.4758 23.7514 22.5005 23.5001 22.5952 23.2716C22.6898 23.0432 22.85 22.848 23.0555 22.7107C23.2611 22.5733 23.5028 22.5 23.75 22.5C24.0815 22.5 24.3995 22.6317 24.6339 22.8661C24.8683 23.1005 25 23.4185 25 23.75ZM35.5555 35.2107C35.7611 35.0733 36.0028 35 36.25 35C36.5815 35 36.8995 35.1317 37.1339 35.3661C37.3683 35.6005 37.5 35.9185 37.5 36.25C37.5 36.4972 37.4267 36.7389 37.2893 36.9445C37.152 37.15 36.9568 37.3102 36.7284 37.4049C36.4999 37.4995 36.2486 37.5242 36.0061 37.476C35.7637 37.4277 35.5409 37.3087 35.3661 37.1339C35.1913 36.9591 35.0723 36.7363 35.024 36.4939C34.9758 36.2514 35.0005 36.0001 35.0952 35.7716C35.1898 35.5432 35.35 35.348 35.5555 35.2107Z" stroke="#0957DE" stroke-width="5"/>
<path d="M22.5 37.5L37.5 22.5001M50.55 23.3251C49.8 21.0501 50.3 18.1251 48.925 16.2501C47.55 14.3751 44.6 13.9001 42.7 12.5001C40.8 11.1001 39.5 8.47505 37.225 7.75005C34.95 7.02505 32.5 8.40005 30 8.40005C27.5 8.40005 25 7.02505 22.775 7.75005C20.55 8.47505 19.2 11.1501 17.3 12.5001C15.4 13.8501 12.5 14.3251 11.075 16.2501C9.65001 18.1751 10.2 21.0501 9.45001 23.3251C8.70001 25.6001 6.60001 27.5 6.60001 30C6.60001 32.5 8.75001 34.475 9.45001 36.675C10.15 38.875 9.70001 41.875 11.075 43.75C12.45 45.625 15.4 46.1 17.3 47.475C19.2 48.85 20.5 51.525 22.775 52.25C25.05 52.975 27.5 51.6 30 51.6C32.5 51.6 35 52.975 37.225 52.25C39.45 51.525 40.8 48.85 42.7 47.475C44.6 46.1 47.55 45.675 48.925 43.75C50.3 41.825 49.8 38.95 50.55 36.675C51.3 34.4 53.4 32.5 53.4 30C53.4 27.5 51.25 25.5251 50.55 23.3251Z" stroke="#0957DE" stroke-width="3" stroke-linecap="round" stroke-linejoin="round"/>
</svg>
