<svg width="42" height="28" viewBox="0 0 42 28" fill="none" xmlns="http://www.w3.org/2000/svg">
<path d="M7.08768 10.299V11.4884H5.96488C4.12844 11.4884 3.38625 11.85 2.83436 12.9918C2.46327 13.7815 2.40618 15.0566 2.71066 15.8939C3.00564 16.6932 3.30061 17.0548 3.92862 17.3593C4.46147 17.6257 4.50905 17.6257 6.49773 17.6543L8.51497 17.6828L8.49594 13.42L8.46739 9.15714L7.78229 9.12859L7.08768 9.10004V10.299ZM7.06865 14.5618L7.08768 16.5505L6.00294 16.5124C5.07996 16.4934 4.87063 16.4553 4.65178 16.2841C4.19504 15.951 4.00474 15.4467 4.00474 14.5903C3.99522 13.0489 4.6042 12.5255 6.37404 12.5636L7.0401 12.5826L7.06865 14.5618Z" fill="#C82429"/>
<path d="M16.0988 9.17611C16.0608 9.20466 16.0322 9.74703 16.0322 10.3655V11.4883H15.4613H14.8904V12.0117V12.535H15.4518H16.0132L16.0512 14.5047C16.0798 16.2555 16.0988 16.5314 16.2701 16.8549C16.6031 17.521 16.841 17.6257 18.1065 17.6542L19.2198 17.6923L19.2103 17.1309L19.1913 16.579L18.5252 16.5504C17.5071 16.5124 17.5071 16.5124 17.5071 14.3524V12.5826L18.3634 12.535L19.2198 12.4874V11.9831V11.4883H18.3444H17.4595V10.2989V9.1095H16.8125C16.4509 9.1095 16.1274 9.13805 16.0988 9.17611Z" fill="#C82429"/>
<path d="M37.9647 9.45201C37.6316 9.81359 37.6411 10.2798 38.0027 10.6414C38.6212 11.2599 39.6298 10.708 39.4681 9.83262C39.3444 9.21413 38.4024 8.97625 37.9647 9.45201ZM39.0875 9.56619C39.3158 9.76601 39.2968 10.2989 39.0589 10.5367C38.5165 11.0791 37.5555 10.2608 38.0408 9.66135C38.3358 9.29025 38.7259 9.25219 39.0875 9.56619Z" fill="#151515"/>
<path d="M38.2976 10.0039C38.2976 10.2418 38.3452 10.4416 38.3928 10.4416C38.4499 10.4416 38.4879 10.375 38.4879 10.2989C38.4879 10.2228 38.5355 10.1561 38.5831 10.1561C38.6402 10.1561 38.7068 10.2228 38.7353 10.2989C38.8495 10.5748 38.9446 10.4416 38.9351 10.0324C38.9161 9.65184 38.8971 9.63281 38.6116 9.60426C38.2976 9.57571 38.2976 9.57571 38.2976 10.0039ZM38.7734 9.87069C38.7734 9.91826 38.7068 9.96584 38.6306 9.96584C38.5545 9.96584 38.4879 9.91826 38.4879 9.87069C38.4879 9.8136 38.5545 9.77553 38.6306 9.77553C38.7068 9.77553 38.7734 9.8136 38.7734 9.87069Z" fill="#151515"/>
<path d="M11.284 11.5835C10.4371 11.7643 9.55221 12.5065 9.15257 13.3819C8.86711 14.0004 8.86711 15.1613 9.15257 15.7893C9.43803 16.4173 10.066 17.0548 10.694 17.3593C11.3982 17.7114 12.5019 17.7304 13.1966 17.4164C13.8341 17.1309 14.5382 16.4268 14.8046 15.8369C15.1377 15.0947 15.1281 14.0099 14.7666 13.2868C14.4716 12.6683 13.815 12.0308 13.2441 11.7738C12.7493 11.555 11.8454 11.4694 11.284 11.5835ZM12.9492 12.9632C13.0253 13.0679 13.0824 13.3724 13.0824 13.734C13.0824 14.1336 13.1299 14.3525 13.2251 14.4381C13.4059 14.5904 13.4344 16.1413 13.2536 16.3221C13.1775 16.3983 12.7398 16.4363 11.9215 16.4363C10.8177 16.4363 10.7036 16.4173 10.6084 16.2555C10.4562 15.9701 10.4847 14.695 10.656 14.4762C10.7416 14.362 10.7892 14.0765 10.7987 13.7054C10.7987 13.1821 10.8273 13.0965 11.0651 12.9157C11.2935 12.7349 11.4172 12.7158 12.0642 12.7444C12.6732 12.7729 12.835 12.811 12.9492 12.9632Z" fill="#C82429"/>
<path d="M11.341 13.2582C11.303 13.2963 11.2744 13.5342 11.2744 13.7911V14.2478H11.9976H12.7112L12.6827 13.7435L12.6541 13.2487L12.0356 13.2202C11.6931 13.2011 11.3791 13.2202 11.341 13.2582Z" fill="#9E191D"/>
<path d="M19.6191 15.6465L19.6477 19.8141H20.3328H21.0274L21.0559 18.7389L21.0845 17.6732H22.1597C23.587 17.6732 24.1198 17.5115 24.6908 16.9215C25.2807 16.3125 25.4996 15.6845 25.4996 14.5808C25.49 13.4199 25.2902 12.83 24.6527 12.2019C24.0057 11.5549 23.7202 11.4883 21.4365 11.4883H19.6001L19.6191 15.6465ZM23.1493 12.7633C23.8154 13.1059 24.0628 13.6863 24.0057 14.714C23.9581 15.5323 23.7773 15.951 23.3301 16.284C23.1017 16.4553 22.8924 16.4933 22.0645 16.5124L21.075 16.5504V14.5903V12.6301H21.9789C22.5784 12.6301 22.978 12.6777 23.1493 12.7633Z" fill="#151515"/>
<path d="M26.0419 12.0306L26.0704 12.5825L27.9735 12.6396C29.0202 12.6681 29.8861 12.6967 29.8956 12.7062C30.2001 12.9917 30.3047 13.1915 30.3047 13.5055V13.8671H29.0297C27.5643 13.8671 26.8697 13.9717 26.4415 14.2667C25.5756 14.8662 25.49 16.5028 26.2893 17.2259C26.708 17.6065 27.1171 17.6636 29.4959 17.6732H31.7796L31.732 15.1706L31.6844 12.6586L31.4275 12.2685C30.9613 11.5644 30.8471 11.5358 28.278 11.5073L26.0133 11.4787L26.0419 12.0306ZM30.3047 15.7701V16.5313H28.9821C27.8308 16.5313 27.6309 16.5123 27.4406 16.3505C27.1171 16.0936 27.1361 15.5322 27.4882 15.2373C27.7356 15.0184 27.8212 15.0089 29.0297 15.0089H30.3047V15.7701Z" fill="#151515"/>
<path d="M32.208 13.9338C32.2651 16.6456 32.2841 16.7693 32.8931 17.2355C33.3593 17.5781 33.8351 17.6732 35.1387 17.6732H36.3186L36.252 17.9872C36.1283 18.5582 36.0902 18.5772 34.0539 18.6248L32.1889 18.6723L32.1699 19.2242L32.1604 19.7666H34.0635C35.1577 19.7666 36.1283 19.719 36.3471 19.6619C36.8229 19.5287 37.3843 18.9768 37.546 18.482C37.6317 18.2156 37.6792 17.1404 37.6983 14.7901L37.7363 11.4883H37.0227H36.2995V14.0099V16.5314H35.2624C34.2918 16.5314 34.1967 16.5124 33.9493 16.3031L33.6828 16.0747L33.6543 13.7815L33.6257 11.4883H32.8931H32.1604L32.208 13.9338Z" fill="#151515"/>
</svg>
