<svg width="24" height="24" viewBox="0 0 24 24" fill="none" xmlns="http://www.w3.org/2000/svg">
<path d="M20.2182 14.1441C19.9753 14.1441 19.7214 14.0668 19.4785 14.0116C18.9871 13.9017 18.5038 13.7578 18.0323 13.581C17.5201 13.3947 16.9572 13.4044 16.4517 13.6082C15.9462 13.812 15.534 14.1955 15.2944 14.685L15.0515 15.1929C13.9793 14.5848 12.9888 13.8428 12.1038 12.9849C11.2458 12.0999 10.5039 11.1093 9.89578 10.0372L10.4036 9.80532C10.8931 9.56566 11.2766 9.15344 11.4805 8.64798C11.6843 8.14252 11.6939 7.57955 11.5076 7.06739C11.3323 6.59159 11.1885 6.10478 11.0771 5.6101C11.0219 5.36722 10.9777 5.1133 10.9446 4.87041C10.8105 4.09277 10.4032 3.38855 9.796 2.88457C9.18879 2.38059 8.4216 2.10997 7.63257 2.12144H4.30951C3.84279 2.12083 3.38121 2.21887 2.95503 2.40913C2.52884 2.59939 2.14769 2.87757 1.83654 3.22545C1.51894 3.58276 1.28246 4.0046 1.14334 4.46197C1.00422 4.91935 0.965765 5.40142 1.03061 5.87506C1.63074 10.4701 3.73014 14.7387 7.00328 18.0191C10.2837 21.2923 14.5523 23.3917 19.1473 23.9918C19.2907 24.0027 19.4346 24.0027 19.5779 23.9918C20.392 23.993 21.178 23.6943 21.7859 23.1527C22.1338 22.8416 22.412 22.4604 22.6022 22.0343C22.7925 21.6081 22.8905 21.1465 22.8899 20.6798V17.3678C22.884 16.6049 22.6149 15.8675 22.1281 15.2802C21.6413 14.6928 20.9667 14.2915 20.2182 14.1441ZM20.7592 20.7681C20.7588 20.9221 20.7262 21.0744 20.6635 21.2151C20.6007 21.3558 20.5092 21.4818 20.3949 21.5851C20.2739 21.6953 20.1299 21.7773 19.9733 21.825C19.8167 21.8727 19.6515 21.885 19.4896 21.8611C15.3697 21.323 11.541 19.4455 8.59305 16.5177C5.64257 13.5672 3.74871 9.72513 3.20551 5.58802C3.18152 5.4261 3.19384 5.26087 3.24158 5.1043C3.28931 4.94773 3.37127 4.80373 3.48151 4.68273C3.58597 4.56698 3.71376 4.47467 3.85648 4.41187C3.9992 4.34908 4.1536 4.31722 4.30951 4.31841H7.62153C7.87673 4.31217 8.12621 4.39457 8.3275 4.55158C8.52879 4.70858 8.66945 4.93049 8.72553 5.17954C8.72553 5.47762 8.82489 5.78674 8.89113 6.08482C9.01873 6.66317 9.18846 7.23141 9.39898 7.78499L7.85337 8.51363C7.58771 8.63558 7.38125 8.85792 7.27929 9.13188C7.16887 9.40066 7.16887 9.70214 7.27929 9.97092C8.86817 13.3743 11.6039 16.1101 15.0073 17.699C15.2761 17.8094 15.5776 17.8094 15.8464 17.699C16.1203 17.597 16.3427 17.3905 16.4646 17.1249L17.1601 15.5793C17.7297 15.787 18.3124 15.9566 18.9045 16.0871C19.1915 16.1533 19.5006 16.2086 19.7987 16.2527C20.0478 16.3088 20.2697 16.4495 20.4267 16.6507C20.5837 16.852 20.6661 17.1015 20.6598 17.3567L20.7592 20.7681ZM14.2456 2C13.9916 2 13.7267 2 13.4728 2C13.18 2.02489 12.909 2.16507 12.7196 2.38971C12.5301 2.61435 12.4377 2.90505 12.4626 3.19785C12.4875 3.49065 12.6277 3.76157 12.8523 3.95101C13.0769 4.14045 13.3676 4.2329 13.6604 4.20801H14.2456C16.0024 4.20801 17.6872 4.9059 18.9295 6.14815C20.1717 7.39039 20.8696 9.07524 20.8696 10.832C20.8696 11.0308 20.8696 11.2184 20.8696 11.4172C20.8451 11.7084 20.9371 11.9975 21.1255 12.221C21.3138 12.4445 21.5831 12.5842 21.8742 12.6095H21.9626C22.2389 12.6106 22.5057 12.508 22.7101 12.322C22.9145 12.136 23.0417 11.8801 23.0666 11.6048C23.0666 11.3509 23.0666 11.086 23.0666 10.832C23.0666 8.49155 22.1376 6.24676 20.4836 4.59075C18.8297 2.93473 16.5861 2.00293 14.2456 2ZM16.4536 10.832C16.4536 11.1248 16.5699 11.4057 16.7769 11.6127C16.984 11.8197 17.2648 11.936 17.5576 11.936C17.8504 11.936 18.1312 11.8197 18.3382 11.6127C18.5453 11.4057 18.6616 11.1248 18.6616 10.832C18.6616 9.66084 18.1963 8.53761 17.3682 7.70944C16.54 6.88128 15.4168 6.41602 14.2456 6.41602C13.9528 6.41602 13.672 6.53234 13.4649 6.73938C13.2579 6.94642 13.1416 7.22723 13.1416 7.52003C13.1416 7.81283 13.2579 8.09364 13.4649 8.30068C13.672 8.50772 13.9528 8.62403 14.2456 8.62403C14.8312 8.62403 15.3928 8.85666 15.8069 9.27074C16.2209 9.68483 16.4536 10.2464 16.4536 10.832Z" fill="#727C89"/>
</svg>
