<svg width="60" height="60" viewBox="0 0 60 60" fill="none" xmlns="http://www.w3.org/2000/svg">
<path d="M54.7778 33.111C54.7778 39.7119 52.1556 46.0425 47.488 50.7101C42.8204 55.3777 36.4898 57.9999 29.8889 57.9999C23.2879 57.9999 16.9574 55.3777 12.2898 50.7101C7.62222 46.0425 5 39.7119 5 33.111C5.00168 31.5454 5.14748 29.9832 5.43556 28.4443C6.51525 34.1395 9.54894 39.2792 14.0132 42.9766C18.4775 46.6741 24.0923 48.6974 29.8889 48.6974C35.6855 48.6974 41.3003 46.6741 45.7646 42.9766C50.2288 39.2792 53.2625 34.1395 54.3422 28.4443C54.6303 29.9832 54.7761 31.5454 54.7778 33.111Z" fill="#F7F9FD"/>
<path d="M29.889 11.3333C25.2741 11.3333 20.7628 12.7018 16.9257 15.2657C13.0886 17.8296 10.0979 21.4738 8.33182 25.7374C6.56577 30.001 6.1037 34.6925 7.00402 39.2188C7.90434 43.745 10.1266 47.9026 13.3898 51.1658C16.6531 54.429 20.8107 56.6513 25.3369 57.5516C29.8631 58.452 34.5547 57.9899 38.8183 56.2238C43.0819 54.4578 46.7261 51.4671 49.29 47.63C51.8539 43.7928 53.2223 39.2816 53.2223 34.6667C53.2223 28.4783 50.764 22.5434 46.3882 18.1675C42.0123 13.7917 36.0774 11.3333 29.889 11.3333ZM29.889 11.3333V2M20.5557 2H39.2223" stroke="#0957DE" stroke-width="3" stroke-linecap="round" stroke-linejoin="round"/>
<path d="M29.8889 23.7773V33.1107L36.1111 39.3329" stroke="#0957DE" stroke-width="3" stroke-linecap="round" stroke-linejoin="round"/>
</svg>
