<svg width="60" height="60" viewBox="0 0 60 60" fill="none" xmlns="http://www.w3.org/2000/svg">
<path d="M17.5556 13.5024V57.0579H8.22222C6.57199 57.0579 4.98934 56.4024 3.82245 55.2355C2.65555 54.0686 2 52.486 2 50.8357V13.5024H17.5556ZM45.5556 13.5024L40.6711 3.70238C40.3095 2.99032 39.6879 2.4446 38.935 2.1782C38.1821 1.9118 37.3556 1.94512 36.6267 2.27127L11.3333 13.5024" fill="#F7F9FD"/>
<path d="M11.3333 13.5024L36.6267 2.27127C37.3557 1.94512 38.1821 1.9118 38.935 2.1782C39.6879 2.4446 40.3095 2.99032 40.6711 3.70238L45.5556 13.5024M54.8889 29.0579V16.6135C54.8889 15.7884 54.5611 14.9971 53.9777 14.4136C53.3942 13.8302 52.6029 13.5024 51.7778 13.5024H5.11111C4.28599 13.5024 3.49467 13.8302 2.91122 14.4136C2.32778 14.9971 2 15.7884 2 16.6135V53.9468C2 54.7719 2.32778 55.5633 2.91122 56.1467C3.49467 56.7302 4.28599 57.0579 5.11111 57.0579H51.7778C52.6029 57.0579 53.3942 56.7302 53.9777 56.1467C54.5611 55.5633 54.8889 54.7719 54.8889 53.9468V41.5024M54.8889 29.0579C55.714 29.0579 56.5053 29.3857 57.0888 29.9692C57.6722 30.5526 58 31.3439 58 32.169V38.3913C58 39.2164 57.6722 40.0077 57.0888 40.5912C56.5053 41.1746 55.714 41.5024 54.8889 41.5024M54.8889 29.0579H45.5556C44.7304 29.0579 43.9391 29.3857 43.3557 29.9692C42.7722 30.5526 42.4444 31.3439 42.4444 32.169V38.3913C42.4444 39.2164 42.7722 40.0077 43.3557 40.5912C43.9391 41.1746 44.7304 41.5024 45.5556 41.5024H54.8889" stroke="#0957DE" stroke-width="3" stroke-linecap="round" stroke-linejoin="round"/>
</svg>
