<svg width="60" height="60" viewBox="0 0 60 60" fill="none" xmlns="http://www.w3.org/2000/svg">
<g clip-path="url(#clip0_539_3574)">
<path d="M5.11108 36.2227H54.8889L52.1511 55.3249C52.0454 56.0724 51.6716 56.756 51.0992 57.2483C50.5268 57.7405 49.7949 58.0079 49.04 58.0004H10.9289C10.1739 58.0079 9.44207 57.7405 8.86968 57.2483C8.29728 56.756 7.92341 56.0724 7.81775 55.3249L5.11108 36.2227Z" fill="#F7F9FD"/>
<path d="M20.6666 2L14.4443 20.6667M39.3332 2L45.5554 20.6667" stroke="#0957DE" stroke-width="3" stroke-linecap="round" stroke-linejoin="round"/>
<path d="M30 45.5559V33.1114M17.5556 45.5559V33.1114M42.4444 45.5559V33.1114M49.1333 58.0003H10.8667C10.121 58.0099 9.39662 57.7513 8.82559 57.2717C8.25455 56.792 7.87482 56.1232 7.75556 55.387L2 20.667H58L52.2133 55.387C52.0949 56.1178 51.7197 56.7825 51.1551 57.2615C50.5906 57.7405 49.8737 58.0025 49.1333 58.0003Z" stroke="#0957DE" stroke-width="3" stroke-linecap="round" stroke-linejoin="round"/>
</g>
<defs>
<clipPath id="clip0_539_3574">
<rect width="60" height="60" fill="white"/>
</clipPath>
</defs>
</svg>
