<svg width="50" height="51" viewBox="0 0 50 51" fill="none" xmlns="http://www.w3.org/2000/svg">
<path d="M43.4792 36.4375L37.8333 26.6875C38.9886 24.5656 39.5905 22.1868 39.5833 19.7708C39.5833 15.9031 38.0469 12.1938 35.312 9.45886C32.5771 6.72395 28.8677 5.1875 25 5.1875C21.1323 5.1875 17.4229 6.72395 14.688 9.45886C11.9531 12.1938 10.4167 15.9031 10.4167 19.7708C10.4095 22.1868 11.0114 24.5656 12.1667 26.6875L6.52082 36.4375C6.33762 36.7548 6.24134 37.1148 6.2417 37.4812C6.24206 37.8476 6.33905 38.2075 6.52288 38.5244C6.70672 38.8414 6.97089 39.1042 7.28875 39.2865C7.60661 39.4688 7.96692 39.564 8.33332 39.5625H14.3125L17.3542 44.6875C17.4567 44.8574 17.583 45.0117 17.7292 45.1458C18.1154 45.5181 18.6303 45.727 19.1667 45.7292H19.4583C19.7728 45.6861 20.0734 45.5718 20.3369 45.3949C20.6005 45.2179 20.8202 44.9831 20.9792 44.7083L25 37.7917L29.0208 44.7708C29.1821 45.0417 29.4028 45.2725 29.6663 45.4457C29.9297 45.6189 30.229 45.7301 30.5417 45.7708H30.8333C31.3769 45.7741 31.9003 45.5648 32.2917 45.1875C32.4318 45.061 32.5513 44.9134 32.6458 44.75L35.6875 39.625H41.6667C42.0338 39.6265 42.3947 39.5309 42.713 39.348C43.0313 39.165 43.2956 38.9013 43.4792 38.5833C43.6738 38.2593 43.7767 37.8884 43.7767 37.5104C43.7767 37.1324 43.6738 36.7615 43.4792 36.4375ZM19.1458 39.625L17.2917 36.5208C17.1091 36.2129 16.8502 35.9571 16.54 35.7783C16.2299 35.5995 15.8788 35.5037 15.5208 35.5H11.9167L14.8958 30.3333C16.9473 32.3102 19.5329 33.6428 22.3333 34.1667L19.1458 39.625ZM25 30.1875C22.9398 30.1875 20.9258 29.5766 19.2128 28.432C17.4998 27.2874 16.1647 25.6605 15.3762 23.7571C14.5878 21.8537 14.3815 19.7593 14.7835 17.7386C15.1854 15.718 16.1775 13.8619 17.6343 12.4051C19.0911 10.9483 20.9472 9.95625 22.9678 9.55432C24.9884 9.15239 27.0829 9.35868 28.9863 10.1471C30.8897 10.9355 32.5165 12.2706 33.6611 13.9836C34.8057 15.6967 35.4167 17.7106 35.4167 19.7708C35.4167 22.5335 34.3192 25.183 32.3657 27.1365C30.4122 29.09 27.7627 30.1875 25 30.1875ZM34.4792 35.5C34.1211 35.5037 33.7701 35.5995 33.4599 35.7783C33.1498 35.9571 32.8909 36.2129 32.7083 36.5208L30.8542 39.625L27.6875 34.1042C30.4781 33.5696 33.0541 32.2382 35.1042 30.2708L38.0833 35.4375L34.4792 35.5Z" fill="#0957DE"/>
</svg>
