<svg width="50" height="51" viewBox="0 0 50 51" fill="none" xmlns="http://www.w3.org/2000/svg">
<path d="M40.896 8.104C40.654 7.90821 40.3711 7.76915 40.0683 7.69704C39.7655 7.62494 39.4503 7.62162 39.146 7.68733C36.9198 8.15388 34.6217 8.15982 32.3932 7.70479C30.1646 7.24977 28.0528 6.3434 26.1877 5.0415C25.8389 4.79956 25.4246 4.66992 25.0002 4.66992C24.5757 4.66992 24.1614 4.79956 23.8127 5.0415C21.9476 6.3434 19.8357 7.24977 17.6072 7.70479C15.3786 8.15982 13.0805 8.15388 10.8543 7.68733C10.55 7.62162 10.2349 7.62494 9.93205 7.69704C9.62921 7.76915 9.34637 7.90821 9.10434 8.104C8.86263 8.30008 8.66793 8.54782 8.53453 8.82903C8.40114 9.11023 8.33245 9.41776 8.33351 9.72899V25.2498C8.33166 28.2368 9.04345 31.181 10.4096 33.8372C11.7758 36.4935 13.7568 38.7849 16.1877 40.5207L23.7918 45.9373C24.1447 46.1885 24.567 46.3235 25.0002 46.3235C25.4333 46.3235 25.8557 46.1885 26.2085 45.9373L33.8127 40.5207C36.2435 38.7849 38.2246 36.4935 39.5907 33.8372C40.9569 31.181 41.6687 28.2368 41.6668 25.2498V9.72899C41.6679 9.41776 41.5992 9.11023 41.4658 8.82903C41.3324 8.54782 41.1377 8.30008 40.896 8.104ZM37.5002 25.2498C37.5018 27.5722 36.9487 29.8614 35.8869 31.927C34.8252 33.9925 33.2855 35.7745 31.396 37.1248L25.0002 41.6873L18.6043 37.1248C16.7148 35.7745 15.1751 33.9925 14.1134 31.927C13.0517 29.8614 12.4986 27.5722 12.5002 25.2498V12.1248C16.8677 12.4986 21.2419 11.4853 25.0002 9.229C28.7584 11.4853 33.1326 12.4986 37.5002 12.1248V25.2498ZM28.2085 20.479L22.6043 26.104L20.7502 24.229C20.3579 23.8367 19.8258 23.6163 19.271 23.6163C18.7162 23.6163 18.1841 23.8367 17.7918 24.229C17.3995 24.6213 17.1792 25.1534 17.1792 25.7082C17.1792 26.263 17.3995 26.795 17.7918 27.1873L21.1252 30.5207C21.3188 30.7159 21.5493 30.8709 21.8031 30.9767C22.057 31.0825 22.3293 31.1369 22.6043 31.1369C22.8794 31.1369 23.1517 31.0825 23.4055 30.9767C23.6594 30.8709 23.8898 30.7159 24.0835 30.5207L31.2502 23.4165C31.6425 23.0242 31.8629 22.4921 31.8629 21.9373C31.8629 21.3825 31.6425 20.8505 31.2502 20.4582C30.8579 20.0659 30.3258 19.8455 29.771 19.8455C29.2162 19.8455 28.6841 20.0659 28.2918 20.4582L28.2085 20.479Z" fill="#0957DE"/>
</svg>
