<svg width="24" height="24" viewBox="0 0 24 24" fill="none" xmlns="http://www.w3.org/2000/svg">
<path d="M16.8838 14.1852C16.6052 14.0532 15.2705 13.3932 15.0212 13.2905C14.7719 13.1879 14.5959 13.1585 14.4052 13.4372C14.2145 13.7159 13.7012 14.3172 13.5399 14.5079C13.3786 14.6985 13.2319 14.7132 12.9532 14.5079C12.1528 14.1867 11.4136 13.7302 10.7679 13.1585C10.1834 12.6082 9.68855 11.9698 9.30129 11.2666C9.13996 11.0026 9.30129 10.8559 9.41862 10.7093C9.53595 10.5626 9.68262 10.4013 9.82928 10.2399C9.93653 10.1004 10.0253 9.94758 10.0933 9.78527C10.1297 9.70979 10.1486 9.62707 10.1486 9.54328C10.1486 9.45948 10.1297 9.37676 10.0933 9.30128C10.0933 9.16928 9.47729 7.83464 9.24262 7.29198C9.00796 6.74932 8.80263 6.82266 8.6413 6.82266H8.05464C7.77518 6.83355 7.51145 6.95487 7.32132 7.15998C7.01444 7.45283 6.77136 7.80591 6.60731 8.1971C6.44327 8.58828 6.3618 9.00913 6.36801 9.43328C6.44302 10.4746 6.8259 11.47 7.46799 12.2932C8.64624 14.0436 10.2582 15.4585 12.1466 16.3998C12.7919 16.6785 13.2906 16.8398 13.6865 16.9718C14.2426 17.1399 14.8304 17.1751 15.4025 17.0745C15.7825 16.9974 16.1426 16.8431 16.4605 16.621C16.7784 16.399 17.0473 16.1141 17.2505 15.7838C17.4196 15.376 17.4753 14.9301 17.4118 14.4932C17.3385 14.3905 17.1625 14.3172 16.8838 14.1852Z" fill="#0957DE"/>
<path d="M19.6263 4.19765C18.6121 3.17377 17.403 2.36336 16.0705 1.81423C14.738 1.26511 13.309 0.98838 11.8678 1.00037C9.95868 1.01036 8.08558 1.52108 6.43558 2.48151C4.78559 3.44194 3.41646 4.81847 2.46494 6.47361C1.51341 8.12876 1.0128 10.0046 1.0131 11.9137C1.0134 13.8229 1.5146 15.6986 2.46664 17.3534L1 23L6.77857 21.5334C8.37608 22.4026 10.1664 22.8565 11.9851 22.8533H11.8678C14.0354 22.8675 16.1581 22.2357 17.9651 21.0386C19.7722 19.8415 21.1818 18.1333 22.0142 16.1319C22.8465 14.1304 23.0639 11.9264 22.6387 9.80092C22.2134 7.67543 21.1647 5.72475 19.6263 4.19765ZM11.8678 20.976C10.2407 20.9773 8.64374 20.5363 7.24789 19.7001L6.92523 19.5094L3.49329 20.404L4.40261 17.0601L4.19728 16.7228C3.02595 14.8364 2.5878 12.5857 2.96596 10.3978C3.34411 8.20977 4.51226 6.2367 6.24877 4.85293C7.98527 3.46915 10.1693 2.77093 12.3865 2.89075C14.6037 3.01058 16.6998 3.9401 18.277 5.50296C19.1226 6.34173 19.7928 7.34039 20.2486 8.44075C20.7043 9.54112 20.9365 10.7212 20.9317 11.9122C20.9278 14.3149 19.9716 16.6181 18.2726 18.317C16.5737 20.016 14.2705 20.9722 11.8678 20.976Z" fill="#0957DE"/>
</svg>
