<svg width="36" height="37" viewBox="0 0 36 37" fill="none" xmlns="http://www.w3.org/2000/svg">
<path d="M29.3558 5.89223C28.6776 5.58943 27.9411 5.43908 27.1984 5.45177C26.4557 5.46446 25.7248 5.6399 25.0573 5.96569L18.1308 9.36128L17.9157 6.77382C17.803 5.65004 17.419 4.57038 16.7969 3.62743C16.1748 2.68449 15.3331 1.90641 14.3439 1.35994C13.3547 0.813478 12.2477 0.514935 11.1176 0.489923C9.98764 0.46491 8.86842 0.714176 7.856 1.21634C7.56411 1.36019 7.31993 1.58511 7.15275 1.86413C6.98556 2.14316 6.90246 2.46444 6.91341 2.78947L7.36121 14.6408L3.79161 16.3907C2.58303 16.9832 1.6595 18.0312 1.22418 19.304C0.788858 20.5769 0.877406 21.9705 1.47034 23.1781L6.68691 33.8027C7.27985 35.0103 8.32861 35.9332 9.60247 36.3681C10.8763 36.8031 12.2709 36.7146 13.4795 36.1222L32.8161 26.6428C33.882 26.1199 34.7306 25.2401 35.2144 24.1565C35.6982 23.0729 35.7865 21.8542 35.4639 20.7123L32.1764 9.142C31.9733 8.42688 31.6154 7.7651 31.128 7.20352C30.6406 6.64194 30.0356 6.19428 29.3558 5.89223ZM15.027 31.5973L11.9891 33.0866C11.5862 33.2841 11.1213 33.3136 10.6967 33.1686C10.2721 33.0236 9.92252 32.716 9.72487 32.3134L4.5083 21.6888C4.31066 21.2862 4.28114 20.8217 4.42625 20.3974C4.57136 19.9732 4.8792 19.6238 5.28206 19.4263L8.32002 17.9371L15.027 31.5973ZM28.9461 10.0477L32.2336 21.618C32.3425 22.0033 32.311 22.4147 32.1447 22.779C31.9785 23.1433 31.6882 23.4368 31.3257 23.6072L18.065 30.108L10.7692 15.2487L10.3401 3.93431C10.8262 3.84971 11.3246 3.86673 11.8038 3.98429C12.283 4.10184 12.7326 4.31739 13.1243 4.61732C13.5159 4.91724 13.8411 5.29504 14.0793 5.72686C14.3174 6.15868 14.4634 6.63515 14.508 7.12619L14.7686 9.69131C14.8223 10.2342 15.0067 10.756 15.306 11.2122C15.6052 11.6685 16.0105 12.0456 16.4873 12.3114C16.964 12.5772 17.498 12.7238 18.0437 12.7387C18.5895 12.7536 19.1307 12.6363 19.6212 12.3969L26.5478 9.00129C26.7707 8.89154 27.0152 8.83222 27.2637 8.82756C27.5122 8.82289 27.7587 8.873 27.9857 8.97432C28.215 9.07156 28.4199 9.21818 28.586 9.40372C28.752 9.58926 28.875 9.80914 28.9461 10.0477Z" fill="#0957DE"/>
</svg>
