<svg width="80" height="80" viewBox="0 0 80 80" fill="none" xmlns="http://www.w3.org/2000/svg">
<path d="M3.33325 24.0742L22.871 4.53646C23.6437 3.77011 24.6865 3.33808 25.7747 3.3335H55.5584C56.6467 3.33808 57.6895 3.77011 58.4621 4.53646L77.9999 24.0742H3.33325Z" fill="#F7F9FD"/>
<path d="M3.33325 24.0742L22.871 4.53646C23.6437 3.77011 24.6865 3.33808 25.7747 3.3335H55.5584C56.6467 3.33808 57.6895 3.77011 58.4621 4.53646L77.9999 24.0742M3.33325 24.0742H77.9999M3.33325 24.0742V73.852C3.33325 74.9522 3.77029 76.0073 4.54822 76.7852C5.32614 77.5631 6.38124 78.0002 7.4814 78.0002H73.8518C74.9519 78.0002 76.007 77.5631 76.785 76.7852C77.5629 76.0073 77.9999 74.9522 77.9999 73.852V24.0742M53.111 53.1113L40.6666 48.9631L28.2221 53.1113V24.0742H53.111V53.1113Z" stroke="#0957DE" stroke-width="3" stroke-linecap="round" stroke-linejoin="round"/>
</svg>
