<svg width="80" height="80" viewBox="0 0 80 80" fill="none" xmlns="http://www.w3.org/2000/svg">
<path d="M20.0001 58.6668L16.0001 65.8247H2.66675V5.3335H28.9825V58.0002L20.0001 58.6668Z" fill="#F7F9FD"/>
<path d="M64 65.8247H70.807C71.8493 65.8247 72.8488 65.4107 73.5858 64.6737C74.3228 63.9367 74.7368 62.9372 74.7368 61.8949V46.1756L67.9775 32.6177C67.648 31.9636 67.1422 31.4147 66.5173 31.0328C65.8923 30.6509 65.1731 30.4512 64.4407 30.4563H55.0877V56.6668M55.0877 56.6668V57.9651C53.0032 57.9651 51.0041 58.7931 49.5301 60.2671C48.0561 61.7411 47.2281 63.7402 47.2281 65.8247H31.5088C31.5088 63.7402 30.6807 61.7411 29.2067 60.2671C27.7328 58.7931 25.7336 57.9651 23.6491 57.9651C21.5646 57.9651 19.5655 58.7931 18.0915 60.2671C16.6175 61.7411 15.7895 63.7402 15.7895 65.8247H7.92982C6.88757 65.8247 5.888 65.4107 5.15102 64.6737C4.41403 63.9367 4 62.9372 4 61.8949V48.6668M55.0877 56.6668V9.26332C55.0877 8.22107 54.6737 7.2215 53.9367 6.48452C53.1997 5.74753 52.2001 5.3335 51.1579 5.3335H7.92982C6.88757 5.3335 5.888 5.74753 5.15102 6.48452C4.41403 7.2215 4 8.22107 4 9.26332V12.6668" stroke="#0957DE" stroke-width="3" stroke-linecap="round" stroke-linejoin="round"/>
<path d="M31.5089 65.8245C31.5089 67.379 31.0479 68.8986 30.1843 70.1911C29.3206 71.4836 28.0931 72.491 26.657 73.0859C25.2208 73.6807 23.6405 73.8364 22.1159 73.5331C20.5912 73.2299 19.1908 72.4813 18.0916 71.3821C16.9924 70.2829 16.2438 68.8825 15.9406 67.3578C15.6373 65.8332 15.793 64.2529 16.3878 62.8167C16.9827 61.3806 17.9901 60.1531 19.2826 59.2894C20.5751 58.4258 22.0947 57.9648 23.6492 57.9648C25.7337 57.9648 27.7328 58.7929 29.2068 60.2669C30.6808 61.7409 31.5089 63.74 31.5089 65.8245ZM55.0878 57.9648C53.5333 57.9648 52.0137 58.4258 50.7212 59.2894C49.4287 60.1531 48.4213 61.3806 47.8264 62.8167C47.2316 64.2529 47.0759 65.8332 47.3792 67.3578C47.6824 68.8825 48.431 70.2829 49.5302 71.3821C50.6294 72.4813 52.0298 73.2299 53.5545 73.5331C55.0791 73.8364 56.6594 73.6807 58.0956 73.0859C59.5317 72.491 60.7592 71.4836 61.6229 70.1911C62.4865 68.8986 62.9474 67.379 62.9474 65.8245C62.9474 63.74 62.1194 61.7409 60.6454 60.2669C59.1714 58.7929 57.1723 57.9648 55.0878 57.9648Z" stroke="#0957DE" stroke-width="3" stroke-linecap="round" stroke-linejoin="round"/>
<path d="M2.66675 21.3335H36.6667" stroke="#0957DE" stroke-width="3" stroke-linecap="round"/>
<path d="M17.3333 30.6665H36.6666M17.3333 30.6665H36.6666" stroke="#0957DE" stroke-width="3" stroke-linecap="round"/>
<path d="M4 40H44.6667" stroke="#0957DE" stroke-width="3" stroke-linecap="round"/>
</svg>
