<svg width="32" height="32" viewBox="0 0 32 32" fill="none" xmlns="http://www.w3.org/2000/svg">
<path d="M15.9999 14.4C16.5273 14.4 17.0429 14.2436 17.4814 13.9506C17.92 13.6576 18.2618 13.2411 18.4636 12.7538C18.6654 12.2665 18.7182 11.7304 18.6153 11.2131C18.5125 10.6958 18.2585 10.2206 17.8855 9.8477C17.5126 9.47476 17.0374 9.22078 16.5202 9.11789C16.0029 9.015 15.4667 9.06781 14.9794 9.26964C14.4922 9.47147 14.0757 9.81327 13.7827 10.2518C13.4896 10.6903 13.3333 11.2059 13.3333 11.7333C13.3333 12.4406 13.6142 13.1188 14.1143 13.6189C14.6144 14.119 15.2927 14.4 15.9999 14.4ZM15.0533 23.6133C15.1772 23.7383 15.3247 23.8375 15.4871 23.9052C15.6496 23.9729 15.8239 24.0077 15.9999 24.0077C16.1759 24.0077 16.3502 23.9729 16.5127 23.9052C16.6752 23.8375 16.8226 23.7383 16.9466 23.6133L22.3999 18.1467C23.6665 16.8807 24.5292 15.2676 24.879 13.5113C25.2287 11.755 25.0496 9.93439 24.3646 8.27984C23.6795 6.62528 22.5191 5.21106 21.0302 4.21606C19.5413 3.22106 17.7907 2.68997 15.9999 2.68997C14.2091 2.68997 12.4586 3.22106 10.9697 4.21606C9.48075 5.21106 8.32036 6.62528 7.63528 8.27984C6.95019 9.93439 6.77118 11.755 7.12089 13.5113C7.4706 15.2676 8.33331 16.8807 9.59992 18.1467L15.0533 23.6133ZM9.63992 11.12C9.73102 10.1693 10.0333 9.25104 10.5246 8.43214C11.016 7.61323 11.684 6.9144 12.4799 6.38665C13.5255 5.70012 14.7491 5.33433 15.9999 5.33433C17.2508 5.33433 18.4743 5.70012 19.5199 6.38665C20.3105 6.91259 20.9748 7.60719 21.4649 8.4205C21.955 9.23381 22.2588 10.1456 22.3544 11.0904C22.45 12.0351 22.3351 12.9893 22.0179 13.8843C21.7007 14.7794 21.1891 15.593 20.5199 16.2667L15.9999 20.7867L11.4799 16.2667C10.8099 15.5995 10.2972 14.7914 9.97886 13.9011C9.66056 13.0107 9.54477 12.0607 9.63992 11.12V11.12ZM25.3333 26.6667H6.66659C6.31296 26.6667 5.97383 26.8071 5.72378 27.0572C5.47373 27.3072 5.33325 27.6464 5.33325 28C5.33325 28.3536 5.47373 28.6927 5.72378 28.9428C5.97383 29.1928 6.31296 29.3333 6.66659 29.3333H25.3333C25.6869 29.3333 26.026 29.1928 26.2761 28.9428C26.5261 28.6927 26.6666 28.3536 26.6666 28C26.6666 27.6464 26.5261 27.3072 26.2761 27.0572C26.026 26.8071 25.6869 26.6667 25.3333 26.6667Z" fill="#0957DE"/>
</svg>
