<svg width="270" height="42" viewBox="0 0 270 42" fill="none" xmlns="http://www.w3.org/2000/svg">
<g clip-path="url(#clip0_702_3132)">
<path d="M177.768 8.98847H184.508V38.9643H177.768V26.4208H166.652V38.9643H159.911V8.98847H166.652V20.5184H177.768V8.98847ZM197.219 8.74642C191.378 9.62132 187.379 15.0724 188.277 20.942C188.708 23.7684 190.202 26.1636 192.289 27.7823C193.658 28.8463 194.764 30.1902 195.531 31.7156C195.691 32.0333 196.037 32.2072 196.386 32.1518L205.037 30.765C205.386 30.7096 205.661 30.4347 205.714 30.0843C205.972 28.3925 206.607 26.7662 207.58 25.3266C209.047 23.1532 209.726 20.4377 209.282 17.6391C208.365 11.8451 202.976 7.88666 197.219 8.74895V8.74642ZM235.371 8.98847C235.371 8.98847 230.183 23.2288 229.368 26.6982H229.225C228.558 23.186 223.788 8.98847 223.788 8.98847H214.804L212.896 38.9643H219.132C219.132 38.9643 220.787 25.0265 220.932 20.9496H221.025C221.765 24.9005 226.176 38.4727 226.176 38.4727H231.414C231.414 38.4727 236.687 24.787 237.638 20.9496H237.761C237.745 25.3442 239.235 38.9643 239.235 38.9643H245.787L244.187 8.98847H235.371ZM257.738 33.4124V26.2847H268.709V20.7857H257.738V14.5404H269.363V8.98847H250.998V38.9643H270V33.4124H257.738ZM18.6813 18.1887V18.8544H22.2345V15.2817H21.5725C19.9752 15.2817 18.6813 16.5827 18.6813 18.1887ZM18.6813 23.3927H22.2345V19.82H18.6813V23.3927ZM24.3584 15.2817H23.6964V18.8544H27.2496V18.1887C27.2496 16.5827 25.9557 15.2817 24.3584 15.2817ZM18.3979 1.6565L13.3678 5.80153V2.65746H6.36171V11.5753L2.85867 14.4622C1.0407 15.9599 -0.00244141 18.2215 -0.00244141 20.6672V37.086H1.33157C4.47102 37.086 7.01869 34.5268 7.01869 31.3676V20.6647C7.01869 20.3142 7.16412 20.0394 7.30956 19.9209L22.8463 7.11514C22.9341 7.04454 22.9617 7.04454 23.0469 7.11514L33.3504 15.3044C35.8153 17.2634 39.3911 16.8424 41.337 14.3639L42.1644 13.31L27.4727 1.63381C24.7947 -0.552171 21.0685 -0.544606 18.3979 1.6565ZM23.6964 23.3927H27.2496V19.82H23.6964V23.3927Z" fill="#FF9933"/>
<path d="M133.066 8.98848H139.806V38.9643H133.066V8.98848ZM81.6859 23.2515C81.6859 28.9951 79.6197 32.9687 76.7561 35.3942C73.6216 38.0214 68.8172 39.277 63.0072 39.277C59.5042 39.277 57.0066 39.0652 55.3517 38.8358V9.40197C57.8316 8.99856 61.0614 8.75652 64.439 8.75652C70.096 8.75652 73.7896 9.80538 76.6457 11.9737C79.7426 14.2984 81.6859 17.9543 81.6859 23.2515ZM74.5494 23.4734C74.5645 17.2458 70.9361 13.9706 65.1411 13.9706C63.6667 13.9706 62.6762 14.0967 62.0794 14.2303V33.8612C62.6687 33.9721 63.609 33.9772 64.4315 33.9772C70.5374 34.0301 74.5494 30.639 74.5494 23.4734ZM92.8746 26.2821H103.845V20.7832H92.8746V14.5379H104.5V8.98595H86.1343V38.9618H105.136V33.4099H92.8746V26.2821ZM109.755 38.9618H116.496V26.91H127.22V21.411H116.496V14.5379H127.963V8.98595H109.755V38.9618ZM204.042 36.6044L199.132 37.391C198.936 37.4213 198.846 37.6507 198.964 37.8096C199.621 38.7046 200.739 39.2089 201.908 39.0223C203.076 38.8358 203.984 38.0062 204.332 36.9498C204.395 36.7607 204.237 36.5741 204.042 36.6044ZM144.064 29.5246H155.633V25.019H144.064V29.5246ZM206.035 34.7714L206.01 34.61C205.947 34.2167 205.576 33.9444 205.183 34.0074L197.269 35.2757C196.878 35.3387 196.607 35.7119 196.669 36.1077L196.695 36.2691C196.757 36.6624 197.128 36.9347 197.522 36.8717L205.436 35.6034C205.827 35.5404 206.098 35.1672 206.035 34.7714ZM196.873 34.5621L205.315 33.2082C205.707 33.1452 205.977 32.772 205.915 32.3762L205.89 32.2148C205.827 31.8215 205.456 31.5492 205.062 31.6122L196.619 32.9661C196.228 33.0292 195.957 33.4023 196.02 33.7982L196.045 33.9595C196.108 34.3529 196.479 34.6252 196.873 34.5621ZM22.8213 33.3368L16.1688 24.8904C15.2861 23.8415 13.7189 23.7205 12.6883 24.6231L8.82666 28.0017C8.82666 28.0017 15.6271 33.715 21.2515 41.2789C22.2295 42.3252 24.0299 42.1538 24.8474 41.2512C40.6399 18.8493 54.0076 9.12967 54.0076 9.12967C54.0076 9.12967 47.661 11.2879 40.843 16.3633C34.025 21.4387 22.8188 33.3343 22.8188 33.3343L22.8213 33.3368Z" fill="#163F6C"/>
</g>
<defs>
<clipPath id="clip0_702_3132">
<rect width="270" height="42" fill="white"/>
</clipPath>
</defs>
</svg>
