<svg width="42" height="28" viewBox="0 0 42 28" fill="none" xmlns="http://www.w3.org/2000/svg">
<path d="M35 13.9024C35 18.6852 31.1305 22.5547 26.3477 22.5547C24.3288 22.5547 22.4781 21.8577 21.012 20.7041C23.0309 19.1178 24.3047 16.6663 24.3047 13.9024C24.3047 11.1384 23.0069 8.68691 21.012 7.10065C22.4781 5.947 24.3288 5.25 26.3477 5.25C31.1305 5.25 35 9.14356 35 13.9024Z" fill="#F79E1B"/>
<path d="M21.012 7.10065C21.012 7.10065 21.012 7.10065 21.012 7.10065C23.0069 8.68691 24.3047 11.1384 24.3047 13.9024C24.3047 16.6663 23.0309 19.1178 21.012 20.7041L20.9879 20.7041C18.9931 19.1418 17.6953 16.6663 17.6953 13.9024C17.6953 11.1385 18.9931 8.68696 20.988 7.1007C20.9879 7.10068 20.988 7.10071 20.988 7.1007L21.012 7.10065Z" fill="#FF5F00"/>
<path d="M17.6953 13.9024C17.6953 11.1385 18.9931 8.68696 20.988 7.1007C19.5219 5.94705 17.6712 5.25004 15.6524 5.25004C10.8695 5.25004 7 9.11957 7 13.9024C7 18.6852 10.8695 22.5548 15.6524 22.5548C17.6712 22.5548 19.5218 21.8577 20.9879 20.7041C18.9931 19.1418 17.6953 16.6663 17.6953 13.9024Z" fill="#EB001B"/>
</svg>
