<svg width="31" height="30" viewBox="0 0 31 30" fill="none" xmlns="http://www.w3.org/2000/svg">
<g clip-path="url(#clip0_702_3114)">
<path d="M27.7607 3.81816C25.9948 2.0522 23.6468 1.07977 21.1493 1.07977C19.0975 1.07977 17.1187 1.74909 15.5001 2.97792C13.8814 1.74903 11.9025 1.07977 9.85069 1.07977C7.35324 1.07977 5.00521 2.05226 3.23919 3.81816C-0.270585 7.32822 -0.427089 12.9714 2.88276 16.6654C3.00136 16.7978 3.12106 16.9247 3.23936 17.0432C7.54918 21.3503 14.7968 28.5915 14.9137 28.6961C15.0805 28.8456 15.2903 28.9204 15.5001 28.9204C15.7098 28.9204 15.9196 28.8456 16.0865 28.6961C16.2033 28.5915 23.4507 21.3503 27.7607 17.043C27.8791 16.9246 27.9992 16.7974 28.117 16.6656C31.4272 12.9714 31.2707 7.32816 27.7607 3.81816ZM26.8072 15.4932C26.7103 15.6016 26.613 15.7047 26.5179 15.7998C23.2164 19.0993 17.3889 24.9216 15.5001 26.8032C13.6112 24.9216 7.78367 19.0995 4.48273 15.8007C4.3861 15.7039 4.29101 15.6031 4.19192 15.4925C1.50463 12.4933 1.63208 7.91123 4.48208 5.06111C5.91611 3.62714 7.82269 2.83747 9.85069 2.83747C11.7242 2.83747 13.5222 3.52419 14.9135 4.77107C15.2474 5.07019 15.7528 5.07019 16.0866 4.77107C17.478 3.52419 19.276 2.83747 21.1493 2.83747C23.1773 2.83747 25.0838 3.62714 26.5178 5.06105C29.368 7.91123 29.4954 12.4933 26.8072 15.4932Z" fill="white"/>
<path d="M19.1167 11.4403C18.7736 11.097 18.2172 11.097 17.8739 11.4403L14.5013 14.8128L13.1258 13.4373C12.7826 13.0941 12.2262 13.0941 11.8829 13.4373C11.5397 13.7805 11.5397 14.3369 11.8829 14.6802L13.8799 16.6771C14.0515 16.8488 14.2764 16.9346 14.5013 16.9346C14.7262 16.9346 14.9512 16.8487 15.1228 16.6771L19.1168 12.6833C19.46 12.34 19.46 11.7836 19.1167 11.4403Z" fill="white"/>
</g>
<defs>
<clipPath id="clip0_702_3114">
<rect width="30" height="30" fill="white" transform="translate(0.5)"/>
</clipPath>
</defs>
</svg>
