<svg width="31" height="30" viewBox="0 0 31 30" fill="none" xmlns="http://www.w3.org/2000/svg">
<g clip-path="url(#clip0_702_3096)">
<path d="M15.5 0C7.20881 0 0.5 6.70951 0.5 15C0.5 23.2912 7.20951 30 15.5 30C23.7912 30 30.5 23.2905 30.5 15C30.5 6.70881 23.7905 0 15.5 0ZM15.5 28.2422C8.19822 28.2422 2.25781 22.3018 2.25781 15C2.25781 7.69822 8.19822 1.75781 15.5 1.75781C22.8018 1.75781 28.7422 7.69822 28.7422 15C28.7422 22.3018 22.8018 28.2422 15.5 28.2422Z" fill="white"/>
<path d="M25.5221 11.0535C24.9924 9.69569 23.4652 9.02578 22.1074 9.55524C20.7496 10.0849 20.0796 11.6122 20.6092 12.9699C20.8554 13.6011 20.9803 14.2679 20.9803 14.952C20.9803 17.9738 18.5218 20.4322 15.5 20.4322C12.4782 20.4322 10.0197 17.9738 10.0197 14.952C10.0197 14.268 10.1446 13.6011 10.3908 12.97C10.9205 11.6122 10.2502 10.0849 8.89267 9.5553C7.53487 9.02549 6.00757 9.69604 5.47794 11.0535C4.99249 12.298 4.74634 13.6096 4.74634 14.952C4.74634 20.8816 9.57042 25.7057 15.5 25.7057C21.4297 25.7057 26.2538 20.8816 26.2538 14.952C26.2538 13.6096 26.0076 12.298 25.5221 11.0535ZM15.5 23.9479C10.5397 23.9479 6.50415 19.9123 6.50415 14.952C6.50415 13.8291 6.70987 12.7324 7.11558 11.6923C7.29054 11.244 7.79737 11.0147 8.25382 11.1929C8.70645 11.3695 8.92976 11.8786 8.75321 12.3311C8.42726 13.1667 8.26196 14.0485 8.26196 14.952C8.26196 18.9431 11.5089 22.19 15.5 22.19C19.4912 22.19 22.7381 18.9431 22.7381 14.952C22.7381 14.0485 22.5728 13.1667 22.2469 12.3311C22.0703 11.8784 22.2938 11.3695 22.7463 11.1929C23.1989 11.0164 23.7081 11.2399 23.8845 11.6923C24.2903 12.7324 24.496 13.8291 24.496 14.952C24.4959 19.9123 20.4604 23.9479 15.5 23.9479Z" fill="white"/>
<path d="M15.5 14.237C16.9539 14.237 18.1367 13.0542 18.1367 11.6003V6.44531C18.1367 4.99143 16.9539 3.80859 15.5 3.80859C14.0461 3.80859 12.8633 4.99143 12.8633 6.44531V11.6003C12.8633 13.0542 14.0461 14.237 15.5 14.237ZM14.6211 6.44531C14.6211 5.96068 15.0154 5.56641 15.5 5.56641C15.9846 5.56641 16.3789 5.96068 16.3789 6.44531V11.6003C16.3789 12.0849 15.9846 12.4792 15.5 12.4792C15.0154 12.4792 14.6211 12.0849 14.6211 11.6003V6.44531Z" fill="white"/>
</g>
<defs>
<clipPath id="clip0_702_3096">
<rect width="30" height="30" fill="white" transform="translate(0.5)"/>
</clipPath>
</defs>
</svg>
