<svg width="31" height="30" viewBox="0 0 31 30" fill="none" xmlns="http://www.w3.org/2000/svg">
<g clip-path="url(#clip0_702_3091)">
<path d="M30.4601 12.2644L15.5001 0L0.540039 12.2644L1.65511 13.6245L2.59277 12.8558V30H28.3978V12.848L29.345 13.6246L30.4601 12.2644ZM26.639 28.2412H4.35155V11.414L15.5001 2.27428L26.639 11.4061V28.2412Z" fill="white"/>
<path d="M14.9473 10.8096C14.8434 10.8937 12.9608 12.4397 12.0329 14.8374C9.68156 13.7981 7.25731 14.0359 7.12435 14.05L6.41785 14.1251L6.3428 14.8316C6.32428 15.0063 5.91812 19.143 8.53835 21.866C9.97815 23.3624 12.013 24.1179 14.5964 24.1179C14.8904 24.1179 15.1918 24.1077 15.5 24.0881C15.8082 24.1077 16.1094 24.1179 16.4036 24.1179C18.9867 24.1179 21.0218 23.3623 22.4616 21.866C25.0818 19.143 24.6757 15.0063 24.6571 14.8316L24.5821 14.1251L23.8756 14.05C23.7427 14.0358 21.3184 13.798 18.967 14.8374C18.0392 12.4397 16.1565 10.8936 16.0526 10.8096L15.4999 10.3632L14.9473 10.8096ZM9.81335 20.6545C8.34776 19.1381 8.09561 16.9308 8.07257 15.7798C8.90951 15.7967 10.303 15.9353 11.584 16.5716C11.5511 16.8208 11.5307 17.0757 11.5257 17.3363C11.4924 19.0664 12.1157 20.7248 13.3812 22.2867C11.8794 22.1008 10.6838 21.5552 9.81335 20.6545ZM22.93 15.7797C22.91 16.9259 22.6624 19.1209 21.1943 20.6466C20.3231 21.552 19.125 22.1003 17.6188 22.2867C18.8844 20.7248 19.5076 19.0664 19.4743 17.3362C19.4693 17.0757 19.4488 16.8208 19.416 16.5715C20.6987 15.9344 22.094 15.7962 22.93 15.7797ZM17.7161 17.381C17.7432 18.9685 16.9982 20.5222 15.5 22.0075C14.0018 20.5222 13.2569 18.9685 13.284 17.381C13.3199 15.2725 14.7024 13.5334 15.5 12.7032C16.2981 13.534 17.6801 15.2728 17.7161 17.381Z" fill="white"/>
</g>
<defs>
<clipPath id="clip0_702_3091">
<rect width="30" height="30" fill="white" transform="translate(0.5)"/>
</clipPath>
</defs>
</svg>
