<svg width="31" height="30" viewBox="0 0 31 30" fill="none" xmlns="http://www.w3.org/2000/svg">
<g clip-path="url(#clip0_702_3109)">
<path d="M30.3822 21.4227L19.4458 2.48033C19.2888 2.2084 18.9987 2.04088 18.6847 2.04088C18.3707 2.04088 18.0805 2.2084 17.9236 2.48033L13.2856 10.5135L10.9798 6.51984V2.91978C10.9798 2.43439 10.5863 2.04088 10.1009 2.04088C9.61549 2.04088 9.22197 2.43439 9.22197 2.91978V3.09381H8.15797C7.67258 3.09381 7.27906 3.48732 7.27906 3.97271C7.27906 4.4581 7.67258 4.85162 8.15797 4.85162H9.22197V6.51984L0.617773 21.4227C0.540664 21.5563 0.5 21.7079 0.5 21.8621V27.0802C0.5 27.5656 0.893516 27.9591 1.37891 27.9591H29.6211C30.1065 27.9591 30.5 27.5656 30.5 27.0802V21.8621C30.5 21.7079 30.4594 21.5563 30.3822 21.4227ZM18.6847 4.6776L28.143 21.0598C27.7347 21.1075 27.4121 21.1716 27.0958 21.2346C26.5344 21.3464 26.004 21.452 24.9139 21.452C23.8238 21.452 23.2935 21.3464 22.732 21.2346C22.1117 21.111 21.4702 20.9833 20.2067 20.9833C19.9176 20.9833 19.6614 20.99 19.4303 21.0018V18.73H22.2507C22.5647 18.73 22.8549 18.5625 23.0118 18.2906C23.1688 18.0186 23.1689 17.6836 23.0118 17.4117L21.7817 15.281C21.9517 15.2071 22.097 15.0802 22.1927 14.9143C22.3497 14.6424 22.3497 14.3074 22.1927 14.0354L19.4459 9.27785C19.2889 9.00592 18.9988 8.8384 18.6848 8.8384C18.3709 8.8384 18.0806 9.00592 17.9237 9.27785L15.1769 14.0354C15.0198 14.3074 15.0198 14.6424 15.1769 14.9143C15.2726 15.0802 15.4178 15.2072 15.5878 15.281L14.3577 17.4117C14.2007 17.6836 14.2007 18.0186 14.3577 18.2906C14.5147 18.5625 14.8048 18.73 15.1188 18.73H17.6725V21.2364C17.1144 21.3475 16.5839 21.452 15.4997 21.452C14.4096 21.452 13.8794 21.3463 13.318 21.2346C12.6977 21.111 12.0563 20.9832 10.7929 20.9832C10.1239 20.9832 9.62937 21.019 9.21998 21.0711L18.6847 4.6776ZM17.8292 14.0354C17.7334 13.8695 17.5882 13.7425 17.4182 13.6687L18.6847 11.4751L19.9511 13.6687C19.7812 13.7426 19.6359 13.8695 19.5402 14.0354C19.3831 14.3073 19.3831 14.6423 19.5402 14.9143L20.7283 16.9722H16.6409L17.829 14.9143C17.9862 14.6423 17.9862 14.3073 17.8292 14.0354ZM6.9875 21.4221C6.73197 21.4408 6.43848 21.452 6.0858 21.452C4.99572 21.452 4.46545 21.3463 3.90406 21.2346C3.58818 21.1716 3.26539 21.1076 2.85699 21.0598L10.1008 8.51308L12.2706 12.2713L6.9875 21.4221ZM2.25781 26.2013V22.7693C2.80355 22.808 3.1741 22.8814 3.56064 22.9584C4.18098 23.082 4.82234 23.2097 6.0858 23.2097C7.34926 23.2097 7.99068 23.082 8.61096 22.9584C9.1724 22.8466 9.70273 22.741 10.7928 22.741C11.8828 22.741 12.413 22.8466 12.9745 22.9584C13.5948 23.082 14.2362 23.2097 15.4996 23.2097C16.763 23.2097 17.4045 23.082 18.0248 22.9584C18.5863 22.8466 19.1166 22.741 20.2066 22.741C21.2967 22.741 21.8271 22.8466 22.3886 22.9584C23.0089 23.082 23.6503 23.2097 24.9138 23.2097C26.1774 23.2097 26.8188 23.082 27.4392 22.9584C27.8254 22.8815 28.1956 22.8078 28.7422 22.7691V26.2013H2.25781V26.2013Z" fill="white"/>
</g>
<defs>
<clipPath id="clip0_702_3109">
<rect width="30" height="30" fill="white" transform="translate(0.5)"/>
</clipPath>
</defs>
</svg>
