<svg width="31" height="30" viewBox="0 0 31 30" fill="none" xmlns="http://www.w3.org/2000/svg">
<g clip-path="url(#clip0_702_3103)">
<path d="M29.6199 21.213H21.3203C20.8427 18.2928 18.3024 16.0571 15.2492 16.0571C12.1961 16.0571 9.65566 18.2928 9.17818 21.213H2.25778V20.0413C2.25778 19.2868 2.37257 18.5586 2.58538 17.8732H5.49434C7.52973 17.8732 9.18569 16.2173 9.18569 14.1819V12.7279C9.31693 12.7209 29.6211 12.7171 29.6211 12.7171C30.1065 12.7171 30.5 12.3235 30.5 11.8382C30.5 11.3528 30.1065 10.9593 29.6211 10.9593H17.4968L24.0594 4.3967H29.6206C30.106 4.3967 30.4995 4.00319 30.4995 3.5178C30.4995 3.03242 30.106 2.63891 29.6206 2.63891H23.6953C23.4622 2.63891 23.2387 2.73155 23.0739 2.89637L15.4827 10.4875L6.89125 1.89613C6.54807 1.55289 5.99155 1.55289 5.64832 1.89613C5.30508 2.23937 5.30508 2.79582 5.64832 3.13906L13.4685 10.9593H9.58207C4.57419 10.9593 0.5 15.0334 0.5 20.0413V22.0919C0.5 22.5773 0.893509 22.9708 1.37889 22.9708H9.1442C9.52054 26.005 12.1148 28.3613 15.2492 28.3613C18.3836 28.3613 20.9779 26.005 21.3542 22.9708H29.6198C30.1052 22.9708 30.4987 22.5773 30.4987 22.0919C30.4987 21.6065 30.1053 21.213 29.6199 21.213ZM7.4279 13.0405V14.1819C7.4279 15.248 6.56049 16.1154 5.49434 16.1154H3.4014C4.32693 14.6635 5.74962 13.5579 7.4279 13.0405ZM15.2492 26.6036C12.8262 26.6036 10.8549 24.6323 10.8549 22.2092C10.8549 19.7862 12.8262 17.8149 15.2492 17.8149C17.6723 17.8149 19.6436 19.7862 19.6436 22.2092C19.6436 24.6323 17.6723 26.6036 15.2492 26.6036Z" fill="white"/>
<path d="M15.2493 19.5004C13.7557 19.5004 12.5405 20.7156 12.5405 22.2092C12.5405 23.7027 13.7557 24.918 15.2493 24.918C16.743 24.918 17.9581 23.7028 17.9581 22.2092C17.9581 20.7155 16.743 19.5004 15.2493 19.5004ZM15.2493 23.1602C14.7249 23.1602 14.2983 22.7336 14.2983 22.2092C14.2983 21.6848 14.7249 21.2583 15.2493 21.2583C15.7737 21.2583 16.2003 21.6849 16.2003 22.2092C16.2003 22.7336 15.7737 23.1602 15.2493 23.1602Z" fill="white"/>
</g>
<defs>
<clipPath id="clip0_702_3103">
<rect width="30" height="30" fill="white" transform="translate(0.5)"/>
</clipPath>
</defs>
</svg>
