<svg width="25" height="24" viewBox="0 0 25 24" fill="none" xmlns="http://www.w3.org/2000/svg">
<path d="M21.5 11C21.2348 11 20.9804 11.1054 20.7929 11.2929C20.6054 11.4804 20.5 11.7348 20.5 12C20.5119 13.873 19.8703 15.6916 18.6857 17.1425C17.501 18.5933 15.8475 19.5857 14.01 19.9486C12.1724 20.3115 10.2658 20.0223 8.61851 19.1308C6.97123 18.2392 5.68641 16.8012 4.98533 15.0643C4.28424 13.3273 4.21079 11.4003 4.77762 9.61508C5.34445 7.82984 6.51607 6.29813 8.0907 5.28378C9.66533 4.26942 11.5444 3.83591 13.4043 4.05791C15.2641 4.27991 16.9884 5.14352 18.28 6.5H15.88C15.6148 6.5 15.3604 6.60536 15.1729 6.79289C14.9854 6.98043 14.88 7.23478 14.88 7.5C14.88 7.76522 14.9854 8.01957 15.1729 8.20711C15.3604 8.39464 15.6148 8.5 15.88 8.5H20.41C20.6752 8.5 20.9296 8.39464 21.1171 8.20711C21.3046 8.01957 21.41 7.76522 21.41 7.5V3C21.41 2.73478 21.3046 2.48043 21.1171 2.29289C20.9296 2.10536 20.6752 2 20.41 2C20.1448 2 19.8904 2.10536 19.7029 2.29289C19.5154 2.48043 19.41 2.73478 19.41 3V4.77C17.7447 3.17806 15.5808 2.20995 13.284 2.02933C10.9873 1.84871 8.69863 2.46664 6.80492 3.77869C4.91121 5.09074 3.52861 7.01641 2.89083 9.23019C2.25305 11.444 2.39921 13.8101 3.30461 15.9285C4.21001 18.047 5.81911 19.7878 7.8599 20.8568C9.90069 21.9258 12.248 22.2574 14.505 21.7955C16.7621 21.3336 18.7904 20.1065 20.2471 18.3217C21.7039 16.5369 22.4997 14.3038 22.5 12C22.5 11.7348 22.3946 11.4804 22.2071 11.2929C22.0196 11.1054 21.7652 11 21.5 11Z" fill="#0957DE"/>
</svg>
