<svg width="50" height="50" viewBox="0 0 50 50" fill="none" xmlns="http://www.w3.org/2000/svg">
<path d="M41.6667 20.8335C40.25 19.5626 38.2708 18.9793 36.8542 17.7501C35.1042 16.1668 33.875 13.1043 31.7708 12.2501C29.6667 11.396 27.2708 13.021 25.0208 13.021C22.7708 13.021 20.2917 11.4376 18.25 12.2501C16.2083 13.0626 14.9167 16.146 13.1667 17.7293C11.7292 18.9585 9.75001 19.5418 8.33334 20.8335C8.4627 20.0543 8.54618 19.2682 8.58334 18.4793C8.57233 17.3158 8.79183 16.1617 9.22918 15.0835C9.87909 14.2918 10.7172 13.6758 11.6667 13.2918C12.7138 12.8002 13.6939 12.1772 14.5833 11.4376C15.4262 10.601 16.1802 9.67947 16.8333 8.68762C17.3437 7.71542 18.0795 6.8796 18.9792 6.25012C19.1719 6.2135 19.3698 6.2135 19.5625 6.25012C20.2718 6.31302 20.9712 6.45988 21.6458 6.68762C22.735 7.01865 23.8624 7.20772 25 7.25012C26.1028 7.20069 27.1948 7.01169 28.25 6.68762C29.1358 6.30752 30.1031 6.15704 31.0625 6.25012C31.9194 6.87453 32.6303 7.67781 33.1458 8.60429C33.7924 9.63216 34.5543 10.5828 35.4167 11.4376C36.3005 12.1642 37.2652 12.7864 38.2917 13.2918C39.2405 13.6875 40.0827 14.3014 40.75 15.0835C41.1587 16.1692 41.3704 17.3192 41.375 18.4793C41.4792 19.1876 41.5417 20.0001 41.6667 20.8335Z" fill="#F7F9FD"/>
<path d="M44.5208 25.0001C44.5208 27.0834 42.7292 28.7293 42.1458 30.5626C41.5625 32.3959 41.9375 34.8959 40.7917 36.4584C39.6458 38.0209 37.1875 38.4168 35.5833 39.5626C33.9792 40.7084 32.9167 42.9376 31.0417 43.5626C29.1667 44.1876 27.0833 43.0209 25 43.0209C22.9167 43.0209 20.8333 44.1668 18.9583 43.5834C17.0833 43.0001 15.9792 40.7293 14.4167 39.5834C12.8542 38.4376 10.4167 38.0834 9.20832 36.4793C7.99999 34.8751 8.47916 32.4793 7.85416 30.5834C7.22916 28.6876 5.47916 27.0834 5.47916 25.0001C5.47916 22.9168 7.27082 21.2501 7.85416 19.4168C8.43749 17.5834 8.06249 15.0834 9.20832 13.5209C10.3542 11.9584 12.8125 11.5834 14.4167 10.4168C16.0208 9.25011 17.0833 7.06261 18.9583 6.43761C20.8333 5.81261 22.9792 7.00011 25 7.00011C27.0208 7.00011 29.1667 5.85428 31.0417 6.43761C32.9167 7.02094 34.0208 9.29178 35.5833 10.4168C37.1458 11.5418 39.625 11.9168 40.7917 13.5209C41.9583 15.1251 41.5208 17.5209 42.1458 19.4168C42.7708 21.3126 44.5208 22.9168 44.5208 25.0001Z" stroke="#0957DE" stroke-width="3" stroke-linecap="round" stroke-linejoin="round"/>
<path d="M16.6667 24.9999L22.9167 31.2499L33.3333 20.8333" stroke="#0957DE" stroke-width="3" stroke-linecap="round" stroke-linejoin="round"/>
</svg>
