<svg width="84" height="28" viewBox="0 0 84 28" fill="none" xmlns="http://www.w3.org/2000/svg">
<g clip-path="url(#clip0_514_1851)">
<path d="M24.965 5.23315C25.4154 5.23315 25.8157 5.33949 26.166 5.55217C26.5226 5.76485 26.801 6.07137 27.0011 6.47171C27.2013 6.87205 27.3014 7.3412 27.3014 7.87915C27.3014 8.42337 27.2013 8.89565 27.0011 9.29599C26.801 9.69633 26.5226 10.0028 26.166 10.2155C25.8157 10.4282 25.4154 10.5345 24.965 10.5345C24.4959 10.5345 24.0955 10.4188 23.764 10.1874C23.4325 9.95592 23.201 9.64941 23.0697 9.26784V12.9272H22V5.29883H23.0697V6.49986C23.201 6.11828 23.4325 5.81177 23.764 5.58032C24.0955 5.34888 24.4959 5.23315 24.965 5.23315ZM24.6366 6.17145C24.3364 6.17145 24.0674 6.24339 23.8297 6.38726C23.592 6.52488 23.4043 6.72505 23.2667 6.98777C23.1291 7.24424 23.0603 7.54137 23.0603 7.87915C23.0603 8.2232 23.1291 8.52345 23.2667 8.77992C23.4043 9.03639 23.592 9.23656 23.8297 9.38043C24.0674 9.51805 24.3364 9.58686 24.6366 9.58686C25.112 9.58686 25.4936 9.43673 25.7813 9.13648C26.0691 8.82996 26.213 8.41086 26.213 7.87915C26.213 7.35371 26.0691 6.93773 25.7813 6.63122C25.4936 6.32471 25.112 6.17145 24.6366 6.17145Z" fill="#0957DE"/>
<path d="M30.274 6.42479L29.5702 6.6969V10.4689H28.4912V7.11913L27.7781 7.39124V6.34973L28.4912 6.07762V3.52545H29.5702V5.65539L30.274 5.38328V6.42479Z" fill="#0957DE"/>
<path d="M33.0901 5.23315C33.5593 5.23315 33.9596 5.34888 34.2911 5.58032C34.6227 5.81177 34.8572 6.11828 34.9949 6.49986V5.29883H36.0645V10.4689H34.9949V9.26784C34.8572 9.64941 34.6227 9.95592 34.2911 10.1874C33.9596 10.4188 33.5593 10.5345 33.0901 10.5345C32.6397 10.5345 32.2363 10.4282 31.8797 10.2155C31.5294 10.0028 31.2542 9.69633 31.054 9.29599C30.8538 8.89565 30.7537 8.42337 30.7537 7.87915C30.7537 7.3412 30.8538 6.87205 31.054 6.47171C31.2542 6.07137 31.5294 5.76485 31.8797 5.55217C32.2363 5.33949 32.6397 5.23315 33.0901 5.23315ZM33.4185 6.17145C32.9431 6.17145 32.5615 6.32471 32.2738 6.63122C31.9923 6.93147 31.8516 7.34745 31.8516 7.87915C31.8516 8.41086 31.9923 8.82996 32.2738 9.13648C32.5615 9.43673 32.9431 9.58686 33.4185 9.58686C33.7188 9.58686 33.9877 9.51805 34.2254 9.38043C34.4632 9.23656 34.6508 9.03639 34.7884 8.77992C34.926 8.52345 34.9949 8.2232 34.9949 7.87915C34.9949 7.54137 34.926 7.24424 34.7884 6.98777C34.6508 6.72505 34.4632 6.52488 34.2254 6.38726C33.9877 6.24339 33.7188 6.17145 33.4185 6.17145Z" fill="#0957DE"/>
<path d="M39.9472 9.53994V10.4689H39.2904C38.74 10.4689 38.3209 10.3375 38.0331 10.0748C37.7516 9.80579 37.6109 9.36167 37.6109 8.74239V6.20898H36.8696V5.29883H37.6109V4.01336H38.6899V5.29883H39.9379V6.20898H38.6899V8.76116C38.6899 9.05516 38.7431 9.25845 38.8494 9.37105C38.962 9.48365 39.1559 9.53994 39.4312 9.53994H39.9472Z" fill="#0957DE"/>
<path d="M43.8392 5.21439C44.4397 5.21439 44.9214 5.4083 45.2842 5.79613C45.647 6.18396 45.8284 6.73756 45.8284 7.45692V10.4689H44.7587V7.56952C44.7587 7.10662 44.6399 6.75007 44.4022 6.49986C44.1645 6.24339 43.8392 6.11515 43.4263 6.11515C43.001 6.11515 42.6601 6.25277 42.4036 6.528C42.1471 6.79698 42.0189 7.1942 42.0189 7.71964V10.4689H40.9492V5.29883H42.0189V6.43417C42.1565 6.04634 42.388 5.74609 42.7132 5.53341C43.0385 5.32073 43.4138 5.21439 43.8392 5.21439Z" fill="#0957DE"/>
<path d="M49.4438 5.23315C49.9443 5.23315 50.3947 5.33949 50.795 5.55217C51.1953 5.76485 51.5081 6.07137 51.7333 6.47171C51.9585 6.87205 52.0711 7.3412 52.0711 7.87915C52.0711 8.42337 51.9585 8.89565 51.7333 9.29599C51.5081 9.69633 51.1953 10.0028 50.795 10.2155C50.3947 10.4282 49.9443 10.5345 49.4438 10.5345C48.9434 10.5345 48.493 10.4282 48.0927 10.2155C47.6986 10.0028 47.3858 9.69633 47.1544 9.29599C46.9292 8.88939 46.8166 8.41711 46.8166 7.87915C46.8166 7.3412 46.9292 6.87205 47.1544 6.47171C47.3858 6.07137 47.6986 5.76485 48.0927 5.55217C48.493 5.33949 48.9434 5.23315 49.4438 5.23315ZM49.4438 6.16207C49.1686 6.16207 48.9153 6.22462 48.6838 6.34973C48.4524 6.47483 48.2647 6.66875 48.1208 6.93147C47.9832 7.18794 47.9144 7.50383 47.9144 7.87915C47.9144 8.26073 47.9832 8.57975 48.1208 8.83622C48.2647 9.09269 48.4524 9.28348 48.6838 9.40858C48.9153 9.53369 49.1686 9.59624 49.4438 9.59624C49.7191 9.59624 49.9724 9.53369 50.2039 9.40858C50.4353 9.28348 50.6198 9.09269 50.7575 8.83622C50.9013 8.57975 50.9733 8.26073 50.9733 7.87915C50.9733 7.50383 50.9013 7.18794 50.7575 6.93147C50.6198 6.66875 50.4353 6.47483 50.2039 6.34973C49.9724 6.22462 49.7191 6.16207 49.4438 6.16207Z" fill="#0957DE"/>
<path d="M54.7978 5.23315C55.4046 5.23315 55.8893 5.38953 56.2522 5.7023C56.6212 6.00881 56.8464 6.42166 56.9277 6.94086H55.9144C55.8706 6.65937 55.7486 6.43417 55.5484 6.26528C55.3545 6.09013 55.0949 6.00256 54.7696 6.00256C54.5007 6.00256 54.2911 6.06824 54.141 6.1996C53.9971 6.32471 53.9252 6.49673 53.9252 6.71566C53.9252 6.8783 53.9783 7.00966 54.0847 7.10975C54.191 7.20983 54.3224 7.28803 54.4788 7.34432C54.6414 7.40062 54.8697 7.46318 55.1637 7.53198C55.5516 7.61956 55.8643 7.71026 56.102 7.80409C56.346 7.89792 56.5524 8.04805 56.7213 8.25447C56.8965 8.45464 56.984 8.72988 56.984 9.08018C56.984 9.51179 56.8183 9.86209 56.4867 10.1311C56.1615 10.4001 55.7205 10.5345 55.1637 10.5345C54.5194 10.5345 53.9971 10.3844 53.5968 10.0842C53.2027 9.7839 52.965 9.36479 52.8837 8.82684H53.9252C53.9565 9.10833 54.0816 9.33665 54.3005 9.51179C54.5194 9.68694 54.8072 9.77452 55.1637 9.77452C55.4202 9.77452 55.6204 9.70884 55.7642 9.57748C55.9144 9.43986 55.9894 9.26784 55.9894 9.06141C55.9894 8.88001 55.9331 8.73613 55.8205 8.62979C55.7079 8.52345 55.5672 8.44213 55.3983 8.38584C55.2294 8.32328 54.998 8.26073 54.704 8.19818C54.3286 8.1106 54.0221 8.02303 53.7844 7.93545C53.553 7.84788 53.3528 7.70713 53.1839 7.51322C53.0213 7.31305 52.94 7.04407 52.94 6.70628C52.94 6.26841 53.1026 5.91498 53.4279 5.646C53.7594 5.37077 54.2161 5.23315 54.7978 5.23315ZM56.4211 3.83509L54.3474 4.89536V4.14473L56.4211 3V3.83509Z" fill="#0957DE"/>
<path d="M60.3555 5.23315C61.0249 5.23315 61.5784 5.41143 62.0163 5.76798C62.4542 6.11828 62.7263 6.59681 62.8326 7.20358H61.6973C61.6347 6.8783 61.4815 6.62496 61.2375 6.44356C60.9998 6.2559 60.6996 6.16207 60.3368 6.16207C59.9239 6.16207 59.5799 6.30907 59.3046 6.60307C59.0294 6.89081 58.8918 7.31618 58.8918 7.87915C58.8918 8.44213 59.0294 8.87062 59.3046 9.16462C59.5799 9.45862 59.9239 9.60562 60.3368 9.60562C60.6996 9.60562 60.9998 9.51179 61.2375 9.32413C61.4815 9.13647 61.6347 8.88001 61.6973 8.55473H62.8326C62.7263 9.1615 62.4542 9.64316 62.0163 9.99971C61.5784 10.3563 61.0249 10.5345 60.3555 10.5345C59.8551 10.5345 59.411 10.4282 59.0231 10.2155C58.6416 10.0028 58.3413 9.69633 58.1224 9.29599C57.9034 8.89565 57.794 8.42337 57.794 7.87915C57.794 7.3412 57.9034 6.87205 58.1224 6.47171C58.3413 6.07137 58.6416 5.76485 59.0231 5.55217C59.411 5.33949 59.8551 5.23315 60.3555 5.23315ZM61.8005 3.83509L59.7269 4.89536V4.14473L61.8005 3V3.83509Z" fill="#0957DE"/>
<path d="M24.965 16.7814C25.4154 16.7814 25.8157 16.8878 26.166 17.1005C26.5226 17.3131 26.801 17.6197 27.0011 18.02C27.2013 18.4203 27.3014 18.8895 27.3014 19.4274C27.3014 19.9717 27.2013 20.4439 27.0011 20.8443C26.801 21.2446 26.5226 21.5511 26.166 21.7638C25.8157 21.9765 25.4154 22.0828 24.965 22.0828C24.4959 22.0828 24.0955 21.9671 23.764 21.7357C23.4325 21.5042 23.201 21.1977 23.0697 20.8161V24.4755H22V16.8471H23.0697V18.0481C23.201 17.6666 23.4325 17.3601 23.764 17.1286C24.0955 16.8972 24.4959 16.7814 24.965 16.7814ZM24.6366 17.7197C24.3364 17.7197 24.0674 17.7917 23.8297 17.9356C23.592 18.0732 23.4043 18.2733 23.2667 18.5361C23.1291 18.7925 23.0603 19.0897 23.0603 19.4274C23.0603 19.7715 23.1291 20.0717 23.2667 20.3282C23.4043 20.5847 23.592 20.7849 23.8297 20.9287C24.0674 21.0663 24.3364 21.1352 24.6366 21.1352C25.112 21.1352 25.4936 20.985 25.7813 20.6848C26.0691 20.3783 26.213 19.9592 26.213 19.4274C26.213 18.902 26.0691 18.486 25.7813 18.1795C25.4936 17.873 25.112 17.7197 24.6366 17.7197Z" fill="#0957DE"/>
<path d="M29.4013 17.8605C29.5765 17.5227 29.8267 17.2569 30.152 17.0629C30.4773 16.8628 30.8526 16.7627 31.2779 16.7627V17.9262H30.9589C30.4898 17.9262 30.1113 18.0419 29.8236 18.2733C29.5421 18.4985 29.4013 18.8739 29.4013 19.3993V22.0172H28.3317V16.8471H29.4013V17.8605Z" fill="#0957DE"/>
<path d="M32.8488 21.1164H35.5042V22.0172H31.6665V21.1633L34.1812 17.7479H31.7322V16.8471H35.4103V17.701L32.8488 21.1164Z" fill="#0957DE"/>
<path d="M36.9959 16.8471L38.5441 20.6472L39.9797 16.8471H41.1714L38.0468 24.4755H36.8552L37.9718 21.8952L35.7949 16.8471H36.9959Z" fill="#0957DE"/>
<path d="M46.4384 16.7814C46.9388 16.7814 47.3892 16.8878 47.7895 17.1005C48.1899 17.3131 48.5026 17.6197 48.7278 18.02C48.953 18.4203 49.0656 18.8895 49.0656 19.4274C49.0656 19.9717 48.953 20.4439 48.7278 20.8443C48.5026 21.2446 48.1899 21.5511 47.7895 21.7638C47.3892 21.9765 46.9388 22.0828 46.4384 22.0828C45.9379 22.0828 45.4875 21.9765 45.0872 21.7638C44.6931 21.5511 44.3804 21.2446 44.1489 20.8443C43.9237 20.4377 43.8111 19.9654 43.8111 19.4274C43.8111 18.8895 43.9237 18.4203 44.1489 18.02C44.3804 17.6197 44.6931 17.3131 45.0872 17.1005C45.4875 16.8878 45.9379 16.7814 46.4384 16.7814ZM46.4384 17.7104C46.1631 17.7104 45.9098 17.7729 45.6783 17.898C45.4469 18.0231 45.2592 18.217 45.1154 18.4798C44.9777 18.7362 44.9089 19.0521 44.9089 19.4274C44.9089 19.809 44.9777 20.128 45.1154 20.3845C45.2592 20.641 45.4469 20.8318 45.6783 20.9569C45.9098 21.082 46.1631 21.1445 46.4384 21.1445C46.7136 21.1445 46.9669 21.082 47.1984 20.9569C47.4298 20.8318 47.6144 20.641 47.752 20.3845C47.8959 20.128 47.9678 19.809 47.9678 19.4274C47.9678 19.0521 47.8959 18.7362 47.752 18.4798C47.6144 18.217 47.4298 18.0231 47.1984 17.898C46.9669 17.7729 46.7136 17.7104 46.4384 17.7104Z" fill="#0957DE"/>
<path d="M52.1676 16.7814C52.6368 16.7814 53.0371 16.8972 53.3687 17.1286C53.7002 17.3601 53.9316 17.6666 54.063 18.0481V15.0737H55.142V22.0172H54.063V20.8161C53.9316 21.1977 53.7002 21.5042 53.3687 21.7357C53.0371 21.9671 52.6368 22.0828 52.1676 22.0828C51.7172 22.0828 51.3138 21.9765 50.9572 21.7638C50.6069 21.5511 50.3317 21.2446 50.1315 20.8443C49.9313 20.4439 49.8313 19.9717 49.8313 19.4274C49.8313 18.8895 49.9313 18.4203 50.1315 18.02C50.3317 17.6197 50.6069 17.3131 50.9572 17.1005C51.3138 16.8878 51.7172 16.7814 52.1676 16.7814ZM52.496 17.7197C52.0206 17.7197 51.6391 17.873 51.3513 18.1795C51.0698 18.4798 50.9291 18.8957 50.9291 19.4274C50.9291 19.9592 51.0698 20.3783 51.3513 20.6848C51.6391 20.985 52.0206 21.1352 52.496 21.1352C52.7963 21.1352 53.0653 21.0663 53.303 20.9287C53.5407 20.7849 53.7283 20.5847 53.8659 20.3282C54.0036 20.0717 54.0724 19.7715 54.0724 19.4274C54.0724 19.0897 54.0036 18.7925 53.8659 18.5361C53.7283 18.2733 53.5407 18.0732 53.303 17.9356C53.0653 17.7917 52.7963 17.7197 52.496 17.7197Z" fill="#0957DE"/>
<path d="M59.3907 16.7814C59.8411 16.7814 60.2414 16.8878 60.5917 17.1005C60.9483 17.3131 61.2266 17.6197 61.4268 18.02C61.627 18.4203 61.7271 18.8895 61.7271 19.4274C61.7271 19.9717 61.627 20.4439 61.4268 20.8443C61.2266 21.2446 60.9483 21.5511 60.5917 21.7638C60.2414 21.9765 59.8411 22.0828 59.3907 22.0828C58.9215 22.0828 58.5212 21.9671 58.1897 21.7357C57.8581 21.5042 57.6267 21.1977 57.4953 20.8161V22.0172H56.4257V15.0737H57.4953V18.0481C57.6267 17.6666 57.8581 17.3601 58.1897 17.1286C58.5212 16.8972 58.9215 16.7814 59.3907 16.7814ZM59.0623 17.7197C58.762 17.7197 58.4931 17.7917 58.2554 17.9356C58.0177 18.0732 57.83 18.2733 57.6924 18.5361C57.5548 18.7925 57.4859 19.0897 57.4859 19.4274C57.4859 19.7715 57.5548 20.0717 57.6924 20.3282C57.83 20.5847 58.0177 20.7849 58.2554 20.9287C58.4931 21.0663 58.762 21.1352 59.0623 21.1352C59.5377 21.1352 59.9193 20.985 60.207 20.6848C60.4948 20.3783 60.6386 19.9592 60.6386 19.4274C60.6386 18.902 60.4948 18.486 60.207 18.1795C59.9193 17.873 59.5377 17.7197 59.0623 17.7197Z" fill="#0957DE"/>
<path d="M62.6072 15.3458C62.6072 15.1644 62.6698 15.0143 62.7949 14.8955C62.92 14.7766 63.0858 14.7172 63.2922 14.7172C63.4986 14.7172 63.6644 14.7766 63.7895 14.8955C63.9208 15.0143 63.9865 15.1644 63.9865 15.3458C63.9865 15.5273 63.9208 15.6743 63.7895 15.7868C63.6644 15.8994 63.4986 15.9557 63.2922 15.9557C63.0858 15.9557 62.92 15.8994 62.7949 15.7868C62.6698 15.6743 62.6072 15.5273 62.6072 15.3458ZM63.827 16.8471V22.0172H62.7574V16.8471H63.827Z" fill="#0957DE"/>
<path d="M67.4859 16.7814C67.9864 16.7814 68.4367 16.8878 68.8371 17.1005C69.2374 17.3131 69.5502 17.6197 69.7754 18.02C70.0006 18.4203 70.1132 18.8895 70.1132 19.4274C70.1132 19.9717 70.0006 20.4439 69.7754 20.8443C69.5502 21.2446 69.2374 21.5511 68.8371 21.7638C68.4367 21.9765 67.9864 22.0828 67.4859 22.0828C66.9855 22.0828 66.5351 21.9765 66.1348 21.7638C65.7407 21.5511 65.4279 21.2446 65.1965 20.8443C64.9713 20.4377 64.8587 19.9654 64.8587 19.4274C64.8587 18.8895 64.9713 18.4203 65.1965 18.02C65.4279 17.6197 65.7407 17.3131 66.1348 17.1005C66.5351 16.8878 66.9855 16.7814 67.4859 16.7814ZM67.4859 17.7104C67.2107 17.7104 66.9574 17.7729 66.7259 17.898C66.4945 18.0231 66.3068 18.217 66.1629 18.4798C66.0253 18.7362 65.9565 19.0521 65.9565 19.4274C65.9565 19.809 66.0253 20.128 66.1629 20.3845C66.3068 20.641 66.4945 20.8318 66.7259 20.9569C66.9574 21.082 67.2107 21.1445 67.4859 21.1445C67.7612 21.1445 68.0145 21.082 68.246 20.9569C68.4774 20.8318 68.6619 20.641 68.7996 20.3845C68.9434 20.128 69.0154 19.809 69.0154 19.4274C69.0154 19.0521 68.9434 18.7362 68.7996 18.4798C68.6619 18.217 68.4774 18.0231 68.246 17.898C68.0145 17.7729 67.7612 17.7104 67.4859 17.7104Z" fill="#0957DE"/>
<path d="M72.2112 17.8605C72.3864 17.5227 72.6366 17.2569 72.9619 17.0629C73.2871 16.8628 73.6625 16.7627 74.0878 16.7627V17.9262H73.7688C73.2997 17.9262 72.9212 18.0419 72.6335 18.2733C72.352 18.4985 72.2112 18.8739 72.2112 19.3993V22.0172H71.1416V16.8471H72.2112V17.8605Z" fill="#0957DE"/>
<path d="M75.6587 21.1164H78.3141V22.0172H74.4764V21.1633L76.9911 17.7479H74.5421V16.8471H78.2202V17.701L75.6587 21.1164Z" fill="#0957DE"/>
<path d="M84 19.1835C84 19.3586 83.9875 19.5119 83.9625 19.6433H79.9841C80.0028 20.175 80.1498 20.569 80.4251 20.8255C80.7003 21.082 81.0412 21.2102 81.4478 21.2102C81.8044 21.2102 82.1046 21.1195 82.3486 20.9381C82.5988 20.7567 82.7521 20.5159 82.8084 20.2156H83.9531C83.8843 20.5784 83.7404 20.9006 83.5215 21.1821C83.3025 21.4636 83.0179 21.6856 82.6676 21.8483C82.3173 22.0046 81.9264 22.0828 81.4947 22.0828C80.9943 22.0828 80.5502 21.9765 80.1624 21.7638C79.7808 21.5511 79.4805 21.2446 79.2616 20.8443C79.0427 20.4439 78.9332 19.9717 78.9332 19.4274C78.9332 18.8895 79.0427 18.4203 79.2616 18.02C79.4805 17.6197 79.7808 17.3131 80.1624 17.1005C80.5502 16.8878 80.9943 16.7814 81.4947 16.7814C82.0014 16.7814 82.4424 16.8878 82.8177 17.1005C83.1993 17.3069 83.4902 17.5946 83.6904 17.9637C83.8968 18.3265 84 18.7331 84 19.1835ZM82.921 19.1553C82.9335 18.8176 82.874 18.5361 82.7427 18.3109C82.6176 18.0794 82.4424 17.9105 82.2172 17.8042C81.9983 17.6916 81.7575 17.6353 81.4947 17.6353C81.0756 17.6353 80.7253 17.7635 80.4438 18.02C80.1624 18.2765 80.0091 18.6549 79.9841 19.1553H82.921Z" fill="#0957DE"/>
<path d="M7.3125 13.4375H10.6875V15.5638C10.6875 15.7458 10.6152 15.9203 10.4865 16.049C10.3578 16.1777 10.1833 16.25 10.0013 16.25H7.99875C7.81675 16.25 7.64219 16.1777 7.5135 16.049C7.3848 15.9203 7.3125 15.7458 7.3125 15.5638V13.4375Z" fill="#F7F9FD"/>
<path d="M16.712 10.7882C16.6597 10.7354 16.5975 10.6936 16.5289 10.665C16.4604 10.6365 16.3869 10.6218 16.3126 10.6218C16.2383 10.6218 16.1648 10.6365 16.0963 10.665C16.0277 10.6936 15.9655 10.7354 15.9132 10.7882L13.832 12.875H4.16823L2.08698 10.7882C1.98106 10.6822 1.8374 10.6227 1.6876 10.6227C1.53781 10.6227 1.39415 10.6822 1.28823 10.7882C1.18231 10.8941 1.1228 11.0377 1.1228 11.1875C1.1228 11.3373 1.18231 11.481 1.28823 11.5869L3.3751 13.6682V21.3125C3.3751 21.7601 3.55289 22.1893 3.86936 22.5058C4.18583 22.8222 4.61505 23 5.0626 23H12.9376C13.3852 23 13.8144 22.8222 14.1308 22.5058C14.4473 22.1893 14.6251 21.7601 14.6251 21.3125V13.6682L16.712 11.5869C16.7647 11.5346 16.8065 11.4724 16.8351 11.4039C16.8637 11.3353 16.8784 11.2618 16.8784 11.1875C16.8784 11.1133 16.8637 11.0397 16.8351 10.9712C16.8065 10.9027 16.7647 10.8404 16.712 10.7882ZM13.5001 21.3125C13.5001 21.4617 13.4408 21.6048 13.3354 21.7103C13.2299 21.8158 13.0868 21.875 12.9376 21.875H5.0626C4.91342 21.875 4.77035 21.8158 4.66486 21.7103C4.55937 21.6048 4.5001 21.4617 4.5001 21.3125V14H13.5001V21.3125Z" fill="#0957DE"/>
<path d="M7.3125 20.75H6.1875C6.03832 20.75 5.89524 20.6907 5.78975 20.5852C5.68426 20.4798 5.625 20.3367 5.625 20.1875C5.625 20.0383 5.68426 19.8952 5.78975 19.7898C5.89524 19.6843 6.03832 19.625 6.1875 19.625H7.3125C7.46168 19.625 7.60476 19.6843 7.71025 19.7898C7.81574 19.8952 7.875 20.0383 7.875 20.1875C7.875 20.3367 7.81574 20.4798 7.71025 20.5852C7.60476 20.6907 7.46168 20.75 7.3125 20.75Z" fill="#0957DE"/>
<path d="M9 11.75C10.864 11.75 12.375 10.239 12.375 8.375C12.375 6.51104 10.864 5 9 5C7.13604 5 5.625 6.51104 5.625 8.375C5.625 10.239 7.13604 11.75 9 11.75Z" fill="#F7F9FD"/>
<path d="M9.0001 10.0625C8.92608 10.0629 8.85269 10.0487 8.78416 10.0207C8.71562 9.99274 8.65329 9.95149 8.60073 9.89936L6.91323 8.21186C6.80731 8.10594 6.7478 7.96228 6.7478 7.81248C6.7478 7.66269 6.80731 7.51903 6.91323 7.41311C7.01915 7.30719 7.16281 7.24768 7.3126 7.24768C7.4624 7.24768 7.60606 7.30719 7.71198 7.41311L9.0001 8.70686L11.9757 5.72561C12.0817 5.61969 12.2253 5.56018 12.3751 5.56018C12.5249 5.56018 12.6686 5.61969 12.7745 5.72561C12.8804 5.83153 12.9399 5.97519 12.9399 6.12498C12.9399 6.27478 12.8804 6.41844 12.7745 6.52436L9.39948 9.89936C9.34692 9.95149 9.28459 9.99274 9.21605 10.0207C9.14752 10.0487 9.07413 10.0629 9.0001 10.0625Z" fill="#0957DE"/>
</g>
<defs>
<clipPath id="clip0_514_1851">
<rect width="84" height="28" fill="white"/>
</clipPath>
</defs>
</svg>
