<svg width="18" height="18" viewBox="0 0 18 18" fill="none" xmlns="http://www.w3.org/2000/svg">
<path d="M7.3125 8.4375H10.6875V10.5638C10.6875 10.7458 10.6152 10.9203 10.4865 11.049C10.3578 11.1777 10.1833 11.25 10.0013 11.25H7.99875C7.81675 11.25 7.64219 11.1777 7.5135 11.049C7.3848 10.9203 7.3125 10.7458 7.3125 10.5638V8.4375Z" fill="#F7F9FD"/>
<path d="M16.712 5.78815C16.6597 5.73543 16.5975 5.69358 16.5289 5.66503C16.4604 5.63647 16.3869 5.62177 16.3126 5.62177C16.2383 5.62177 16.1648 5.63647 16.0963 5.66503C16.0277 5.69358 15.9655 5.73543 15.9132 5.78815L13.832 7.87503H4.16823L2.08698 5.78815C1.98106 5.68223 1.8374 5.62273 1.6876 5.62273C1.53781 5.62273 1.39415 5.68223 1.28823 5.78815C1.18231 5.89407 1.1228 6.03773 1.1228 6.18753C1.1228 6.33732 1.18231 6.48098 1.28823 6.5869L3.3751 8.66815V16.3125C3.3751 16.7601 3.55289 17.1893 3.86936 17.5058C4.18583 17.8222 4.61505 18 5.0626 18H12.9376C13.3852 18 13.8144 17.8222 14.1308 17.5058C14.4473 17.1893 14.6251 16.7601 14.6251 16.3125V8.66815L16.712 6.5869C16.7647 6.53461 16.8065 6.4724 16.8351 6.40385C16.8637 6.33531 16.8784 6.26178 16.8784 6.18753C16.8784 6.11327 16.8637 6.03975 16.8351 5.9712C16.8065 5.90266 16.7647 5.84044 16.712 5.78815ZM13.5001 16.3125C13.5001 16.4617 13.4408 16.6048 13.3354 16.7103C13.2299 16.8158 13.0868 16.875 12.9376 16.875H5.0626C4.91342 16.875 4.77035 16.8158 4.66486 16.7103C4.55937 16.6048 4.5001 16.4617 4.5001 16.3125V9.00003H13.5001V16.3125Z" fill="#0957DE"/>
<path d="M7.3125 15.75H6.1875C6.03832 15.75 5.89524 15.6907 5.78975 15.5852C5.68426 15.4798 5.625 15.3367 5.625 15.1875C5.625 15.0383 5.68426 14.8952 5.78975 14.7898C5.89524 14.6843 6.03832 14.625 6.1875 14.625H7.3125C7.46168 14.625 7.60476 14.6843 7.71025 14.7898C7.81574 14.8952 7.875 15.0383 7.875 15.1875C7.875 15.3367 7.81574 15.4798 7.71025 15.5852C7.60476 15.6907 7.46168 15.75 7.3125 15.75Z" fill="#0957DE"/>
<path d="M9 6.75C10.864 6.75 12.375 5.23896 12.375 3.375C12.375 1.51104 10.864 0 9 0C7.13604 0 5.625 1.51104 5.625 3.375C5.625 5.23896 7.13604 6.75 9 6.75Z" fill="#F7F9FD"/>
<path d="M9.0001 5.06248C8.92608 5.06291 8.85269 5.04872 8.78416 5.02073C8.71562 4.99274 8.65329 4.95149 8.60073 4.89936L6.91323 3.21186C6.80731 3.10594 6.7478 2.96228 6.7478 2.81248C6.7478 2.66269 6.80731 2.51903 6.91323 2.41311C7.01915 2.30719 7.16281 2.24768 7.3126 2.24768C7.4624 2.24768 7.60606 2.30719 7.71198 2.41311L9.0001 3.70686L11.9757 0.725607C12.0817 0.619686 12.2253 0.560181 12.3751 0.560181C12.5249 0.560181 12.6686 0.619686 12.7745 0.725607C12.8804 0.831528 12.9399 0.975188 12.9399 1.12498C12.9399 1.27478 12.8804 1.41844 12.7745 1.52436L9.39948 4.89936C9.34692 4.95149 9.28459 4.99274 9.21605 5.02073C9.14752 5.04872 9.07413 5.06291 9.0001 5.06248Z" fill="#0957DE"/>
</svg>
