<svg width="25" height="24" viewBox="0 0 25 24" fill="none" xmlns="http://www.w3.org/2000/svg">
<path d="M12.5022 3H12.4978C7.53538 3 3.5 7.0365 3.5 12C3.5 13.9688 4.1345 15.7935 5.21338 17.2751L4.09175 20.6186L7.55113 19.5128C8.97425 20.4555 10.6719 21 12.5022 21C17.4646 21 21.5 16.9624 21.5 12C21.5 7.03763 17.4646 3 12.5022 3Z" fill="#4CAF50"/>
<path d="M17.7391 15.7091C17.522 16.3223 16.6602 16.8308 15.9729 16.9793C15.5026 17.0794 14.8884 17.1593 12.8206 16.302C10.1757 15.2063 8.4725 12.5186 8.33975 12.3442C8.21262 12.1699 7.271 10.9211 7.271 9.62963C7.271 8.33813 7.92687 7.70925 8.19125 7.43925C8.40837 7.21763 8.76725 7.11637 9.1115 7.11637C9.22287 7.11637 9.323 7.122 9.413 7.1265C9.67737 7.13775 9.81012 7.1535 9.9845 7.57088C10.2016 8.094 10.7304 9.3855 10.7934 9.51825C10.8575 9.651 10.9216 9.831 10.8316 10.0054C10.7472 10.1854 10.673 10.2652 10.5402 10.4182C10.4075 10.5712 10.2815 10.6883 10.1487 10.8525C10.0272 10.9954 9.89 11.1484 10.043 11.4128C10.196 11.6715 10.7247 12.5344 11.5032 13.2274C12.5079 14.1217 13.3224 14.4075 13.6137 14.529C13.8309 14.619 14.0896 14.5976 14.2482 14.4289C14.4496 14.2118 14.6982 13.8518 14.9514 13.4974C15.1314 13.2431 15.3586 13.2116 15.5971 13.3016C15.8401 13.386 17.126 14.0216 17.3904 14.1532C17.6547 14.286 17.8291 14.349 17.8932 14.4604C17.9562 14.5718 17.9562 15.0949 17.7391 15.7091Z" fill="#FAFAFA"/>
</svg>
