<svg width="29" height="28" viewBox="0 0 29 28" fill="none" xmlns="http://www.w3.org/2000/svg">
<path d="M24.7728 15.6801C24.4692 15.6801 24.1518 15.5835 23.8482 15.5145C23.2339 15.3771 22.6298 15.1973 22.0404 14.9763C21.4002 14.7434 20.6964 14.7555 20.0646 15.0102C19.4328 15.265 18.9175 15.7444 18.618 16.3563L18.3144 16.9911C16.9741 16.231 15.736 15.3035 14.6297 14.2311C13.5573 13.1248 12.6298 11.8867 11.8697 10.5464L12.5045 10.2566C13.1164 9.95707 13.5958 9.4418 13.8506 8.80998C14.1053 8.17815 14.1174 7.47443 13.8845 6.83423C13.6654 6.23949 13.4856 5.63097 13.3463 5.01262C13.2773 4.70902 13.2221 4.39162 13.1807 4.08802C13.0131 3.11597 12.504 2.23569 11.745 1.60572C10.986 0.975739 10.027 0.637461 9.04071 0.651801H4.88689C4.30349 0.651036 3.72651 0.773584 3.19378 1.01141C2.66106 1.24923 2.18461 1.59696 1.79567 2.03181C1.39867 2.47845 1.10307 3.00575 0.929171 3.57746C0.755274 4.14918 0.707206 4.75177 0.788268 5.34382C1.53842 11.0876 4.16267 16.4234 8.25411 20.5239C12.3546 24.6153 17.6904 27.2396 23.4342 27.9897C23.6133 28.0034 23.7932 28.0034 23.9724 27.9897C24.99 27.9912 25.9726 27.6179 26.7324 26.9409C27.1672 26.552 27.515 26.0756 27.7528 25.5428C27.9906 25.0101 28.1132 24.4331 28.1124 23.8497V19.7097C28.105 18.7562 27.7686 17.8344 27.1601 17.1002C26.5516 16.366 25.7084 15.8644 24.7728 15.6801ZM25.449 23.9601C25.4485 24.1527 25.4078 24.343 25.3293 24.5189C25.2509 24.6948 25.1365 24.8523 24.9936 24.9813C24.8423 25.1191 24.6623 25.2216 24.4666 25.2812C24.2709 25.3409 24.0644 25.3563 23.862 25.3263C18.7122 24.6537 13.9263 22.3069 10.2413 18.6471C6.55321 14.959 4.18589 10.1564 3.50688 4.98502C3.4769 4.78262 3.4923 4.57609 3.55197 4.38038C3.61164 4.18466 3.71408 4.00466 3.85188 3.85342C3.98246 3.70873 4.14221 3.59333 4.3206 3.51484C4.499 3.43635 4.69199 3.39653 4.88689 3.39801H9.02691C9.34591 3.39022 9.65776 3.49321 9.90937 3.68947C10.161 3.88573 10.3368 4.16312 10.4069 4.47442C10.4069 4.84702 10.5311 5.23342 10.6139 5.60603C10.7734 6.32896 10.9856 7.03926 11.2487 7.73124L9.31671 8.64204C8.98463 8.79448 8.72656 9.0724 8.59911 9.41484C8.46108 9.75082 8.46108 10.1277 8.59911 10.4637C10.5852 14.7179 14.0049 18.1376 18.2592 20.1237C18.5951 20.2617 18.972 20.2617 19.308 20.1237C19.6504 19.9962 19.9283 19.7382 20.0808 19.4061L20.9502 17.4741C21.6621 17.7337 22.3905 17.9458 23.1306 18.1089C23.4894 18.1917 23.8758 18.2607 24.2484 18.3159C24.5597 18.386 24.8371 18.5618 25.0333 18.8134C25.2296 19.065 25.3326 19.3769 25.3248 19.6959L25.449 23.9601ZM17.3069 0.5C16.9895 0.5 16.6583 0.5 16.3409 0.5C15.9749 0.53111 15.6363 0.706339 15.3995 0.987139C15.1627 1.26794 15.0471 1.63131 15.0782 1.99731C15.1093 2.36331 15.2846 2.70196 15.5654 2.93876C15.8462 3.17557 16.2095 3.29112 16.5755 3.26001H17.3069C19.503 3.26001 21.609 4.13237 23.1618 5.68518C24.7146 7.23799 25.587 9.34405 25.587 11.5401C25.587 11.7885 25.587 12.0231 25.587 12.2715C25.5564 12.6355 25.6714 12.9969 25.9068 13.2762C26.1422 13.5556 26.4788 13.7303 26.8428 13.7619H26.9532C27.2987 13.7633 27.6321 13.635 27.8876 13.4025C28.1431 13.17 28.3021 12.8501 28.3332 12.5061C28.3332 12.1887 28.3332 11.8575 28.3332 11.5401C28.3332 8.61444 27.172 5.80845 25.1045 3.73843C23.0371 1.66842 20.2326 0.503657 17.3069 0.5ZM20.067 11.5401C20.067 11.9061 20.2124 12.2571 20.4712 12.5159C20.73 12.7747 21.081 12.9201 21.447 12.9201C21.813 12.9201 22.164 12.7747 22.4228 12.5159C22.6816 12.2571 22.827 11.9061 22.827 11.5401C22.827 10.0761 22.2454 8.67201 21.2102 7.63681C20.175 6.6016 18.771 6.02003 17.3069 6.02003C16.9409 6.02003 16.5899 6.16542 16.3311 6.42422C16.0723 6.68302 15.9269 7.03403 15.9269 7.40003C15.9269 7.76604 16.0723 8.11704 16.3311 8.37585C16.5899 8.63465 16.9409 8.78004 17.3069 8.78004C18.0389 8.78004 18.741 9.07083 19.2586 9.58843C19.7762 10.106 20.067 10.8081 20.067 11.5401Z" fill="#0B1A48"/>
</svg>
