<svg width="26" height="26" viewBox="0 0 26 26" fill="none" xmlns="http://www.w3.org/2000/svg">
<path d="M24.6677 23.3924L20.0294 18.7916C21.8299 16.5468 22.7018 13.6974 22.4658 10.8295C22.2299 7.96148 20.9042 5.29289 18.7611 3.37241C16.6181 1.45192 13.8207 0.425501 10.9441 0.504214C8.06751 0.582928 5.33041 1.76079 3.2956 3.7956C1.26079 5.83041 0.0829279 8.56751 0.0042144 11.4441C-0.0744991 14.3207 0.951915 17.1181 2.87241 19.2611C4.79289 21.4042 7.46148 22.7299 10.3295 22.9658C13.1974 23.2018 16.0468 22.3299 18.2916 20.5294L22.8924 25.1302C23.0086 25.2474 23.1469 25.3404 23.2992 25.4039C23.4516 25.4673 23.615 25.5 23.7801 25.5C23.9451 25.5 24.1085 25.4673 24.2609 25.4039C24.4132 25.3404 24.5515 25.2474 24.6677 25.1302C24.893 24.8971 25.019 24.5855 25.019 24.2613C25.019 23.9371 24.893 23.6255 24.6677 23.3924ZM11.278 20.5294C9.54712 20.5294 7.85511 20.0162 6.41595 19.0545C4.97678 18.0929 3.85508 16.7261 3.19271 15.127C2.53033 13.5279 2.35702 11.7683 2.6947 10.0707C3.03238 8.37305 3.86587 6.81369 5.08978 5.58978C6.31369 4.36587 7.87305 3.53238 9.57067 3.1947C11.2683 2.85702 13.0279 3.03033 14.627 3.69271C16.2261 4.35508 17.5929 5.47678 18.5545 6.91595C19.5162 8.35511 20.0294 10.0471 20.0294 11.778C20.0294 14.099 19.1074 16.325 17.4662 17.9662C15.825 19.6074 13.599 20.5294 11.278 20.5294Z" fill="#0B1A48"/>
</svg>
