<svg width="44" height="44" viewBox="0 0 44 44" fill="none" xmlns="http://www.w3.org/2000/svg">
<g clip-path="url(#clip0_539_5495)">
<circle cx="22" cy="22" r="22" fill="#F7F9FD"/>
<path d="M29.25 32.125H28.125V30.2496C28.1215 29.6058 28.0075 28.9674 27.788 28.3622C27.7757 28.3291 27.7628 28.2985 27.7476 28.2671C27.5654 27.7703 27.3137 27.3019 27 26.8757L25.4251 24.7751C24.9881 24.19 24.7514 23.4796 24.75 22.7493V21.6132C24.7526 20.7188 25.1076 19.8614 25.7382 19.227L26.4776 18.4876C27.3367 17.6239 27.8885 16.5021 28.0484 15.2944C28.0491 15.2788 28.0574 15.2657 28.0574 15.2499L28.0543 15.2345C28.0934 14.995 28.117 14.7531 28.125 14.5106V11.875H29.25C29.5484 11.875 29.8345 11.7565 30.0455 11.5455C30.2565 11.3345 30.375 11.0484 30.375 10.75C30.375 10.4516 30.2565 10.1655 30.0455 9.9545C29.8345 9.74353 29.5484 9.625 29.25 9.625H13.5C13.2016 9.625 12.9155 9.74353 12.7045 9.9545C12.4935 10.1655 12.375 10.4516 12.375 10.75C12.375 11.0484 12.4935 11.3345 12.7045 11.5455C12.9155 11.7565 13.2016 11.875 13.5 11.875H14.625V14.5106C14.633 14.7531 14.6566 14.995 14.6957 15.2345L14.6926 15.25C14.6926 15.2657 14.7009 15.2788 14.7016 15.2945C14.8615 16.5022 15.4133 17.6239 16.2724 18.4877L17.0118 19.2271C17.6423 19.8614 17.9974 20.7188 18 21.6132V22.7493C17.9985 23.4795 17.762 24.1898 17.3254 24.7751L15.7494 26.8757C15.4358 27.302 15.1842 27.7706 15.002 28.2675C14.9871 28.2987 14.9742 28.329 14.9621 28.3616C14.7425 28.9671 14.6285 29.6056 14.625 30.2496V32.125H13.5C13.2016 32.125 12.9155 32.2435 12.7045 32.4545C12.4935 32.6655 12.375 32.9516 12.375 33.25C12.375 33.5484 12.4935 33.8345 12.7045 34.0455C12.9155 34.2565 13.2016 34.375 13.5 34.375H29.25C29.5484 34.375 29.8345 34.2565 30.0455 34.0455C30.2565 33.8345 30.375 33.5484 30.375 33.25C30.375 32.9516 30.2565 32.6655 30.0455 32.4545C29.8345 32.2435 29.5484 32.125 29.25 32.125ZM16.875 14.125V11.875H25.875V14.125H16.875ZM17.8632 16.8969C17.7047 16.7376 17.5626 16.5628 17.4392 16.375H25.3108C25.1873 16.5628 25.0453 16.7376 24.8868 16.8969L24.1474 17.6362C23.2699 18.5086 22.7072 19.6479 22.5478 20.875H20.2022C20.0428 19.6479 19.4801 18.5085 18.6026 17.6361L17.8632 16.8969ZM19.1256 26.1243C19.7765 25.252 20.1625 24.2108 20.2374 23.125H22.5126C22.5875 24.2109 22.9737 25.2522 23.625 26.1243L24.7501 27.625H17.9996L19.1256 26.1243ZM25.875 32.125H16.875V30.2496C16.8781 30.1243 16.8884 29.9992 16.9056 29.875H25.8444C25.8616 29.9992 25.8719 30.1243 25.875 30.2496V32.125Z" fill="#727C89"/>
</g>
<defs>
<clipPath id="clip0_539_5495">
<rect width="44" height="44" fill="white" transform="translate(0 44) rotate(-90)"/>
</clipPath>
</defs>
</svg>
