<svg width="26" height="26" viewBox="0 0 26 26" fill="none" xmlns="http://www.w3.org/2000/svg">
<path d="M13 0.625C10.5525 0.625 8.15988 1.35078 6.12482 2.71056C4.08976 4.07034 2.50363 6.00305 1.567 8.26429C0.630362 10.5255 0.385296 13.0137 0.862788 15.4142C1.34028 17.8148 2.51888 20.0198 4.24956 21.7504C5.98023 23.4811 8.18525 24.6597 10.5858 25.1372C12.9863 25.6147 15.4745 25.3696 17.7357 24.433C19.9969 23.4964 21.9297 21.9102 23.2894 19.8752C24.6492 17.8401 25.375 15.4475 25.375 13C25.375 11.3749 25.0549 9.76569 24.433 8.26429C23.8111 6.76289 22.8996 5.39868 21.7504 4.24955C20.6013 3.10043 19.2371 2.18889 17.7357 1.56699C16.2343 0.945089 14.6251 0.625 13 0.625V0.625ZM13 22.9C11.042 22.9 9.1279 22.3194 7.49986 21.2315C5.87181 20.1437 4.60291 18.5975 3.8536 16.7886C3.10429 14.9796 2.90824 12.989 3.29023 11.0686C3.67222 9.14819 4.61511 7.38418 5.99965 5.99964C7.38419 4.6151 9.1482 3.67222 11.0686 3.29023C12.989 2.90823 14.9796 3.10428 16.7886 3.85359C18.5976 4.6029 20.1437 5.87181 21.2315 7.49985C22.3194 9.1279 22.9 11.042 22.9 13C22.9 15.6256 21.857 18.1437 20.0004 20.0004C18.1437 21.857 15.6256 22.9 13 22.9V22.9ZM15.5988 10.0671L14.2375 10.8591V6.8125C14.2375 6.48429 14.1071 6.16953 13.875 5.93745C13.643 5.70538 13.3282 5.575 13 5.575C12.6718 5.575 12.357 5.70538 12.125 5.93745C11.8929 6.16953 11.7625 6.48429 11.7625 6.8125V13C11.7625 13 11.7625 13 11.7625 13.0742C11.7567 13.1566 11.7567 13.2393 11.7625 13.3217C11.7817 13.3977 11.8065 13.4722 11.8368 13.5445C11.8368 13.5445 11.8368 13.5445 11.8368 13.6187C11.8959 13.7065 11.9621 13.7893 12.0348 13.8662V13.8662C12.1347 13.9654 12.2522 14.0451 12.3813 14.1014H12.4803C12.6414 14.1843 12.8189 14.2307 13 14.2375V14.2375C13.1442 14.2334 13.2866 14.2041 13.4208 14.1509H13.5321H13.6188L16.8363 12.2946C17.1218 12.1305 17.3304 11.8597 17.4163 11.5418C17.5022 11.2238 17.4582 10.8848 17.2941 10.5992C17.13 10.3137 16.8592 10.1051 16.5413 10.0192C16.2233 9.93332 15.8843 9.97727 15.5988 10.1414V10.0671Z" fill="#727C89"/>
</svg>
