<svg width="42" height="28" viewBox="0 0 42 28" fill="none" xmlns="http://www.w3.org/2000/svg">
<path d="M28.4362 9.18182C27.9189 8.97659 27.0984 8.75 26.0839 8.75C23.494 8.75 21.6702 10.1311 21.6591 12.1056C21.6375 13.5624 22.9648 14.3715 23.9575 14.8573C24.9722 15.3536 25.3171 15.6776 25.3171 16.12C25.3068 16.7995 24.4972 17.1127 23.7421 17.1127C22.6951 17.1127 22.134 16.9512 21.2814 16.5732L20.9361 16.4111L20.5691 18.688C21.1842 18.9682 22.3175 19.2169 23.494 19.2278C26.2459 19.2278 28.0374 17.8681 28.0586 15.7639C28.0691 14.6093 27.3682 13.7246 25.8572 13.0016C24.9399 12.5376 24.3782 12.2246 24.3782 11.7498C24.3889 11.3181 24.8533 10.876 25.8888 10.876C26.7413 10.8543 27.3678 11.0592 27.8423 11.2643L28.0795 11.372L28.4362 9.18182Z" fill="#3362AB"/>
<path d="M18.929 19.0766H16.3064L17.9468 8.93386H20.5693L18.929 19.0766Z" fill="#3362AB"/>
<path fill-rule="evenodd" clip-rule="evenodd" d="M35.1591 8.93386H33.1305C32.505 8.93386 32.0297 9.11714 31.7598 9.77541L27.8643 19.0765H30.6161C30.6161 19.0765 31.0691 17.8246 31.1665 17.555H34.5337C34.609 17.9111 34.8466 19.0765 34.8466 19.0765H37.2749L35.1591 8.93386ZM31.9219 15.4834C32.1378 14.9007 32.9689 12.6455 32.9689 12.6455C32.9645 12.6542 32.9983 12.5605 33.0487 12.4208L33.0493 12.4191L33.0498 12.418C33.125 12.2093 33.2368 11.8995 33.314 11.6745L33.4972 12.5484C33.4972 12.5484 33.9939 14.9763 34.1017 15.4834H31.9219Z" fill="#3362AB"/>
<path d="M14.1159 8.93386L11.5475 15.8503L11.2669 14.4475L11.2666 14.4467L10.3496 9.78645C10.1986 9.13865 9.73451 8.95522 9.16258 8.93386H4.94307L4.8999 9.13879C5.92903 9.40196 6.84948 9.78118 7.65599 10.2527L9.99352 19.0659H12.7668L16.8891 8.93386H14.1159Z" fill="#3362AB"/>
</svg>
