<svg width="24" height="24" viewBox="0 0 24 24" fill="none" xmlns="http://www.w3.org/2000/svg">
<path d="M12.95 14.9508L17.19 10.7108C17.2838 10.6178 17.3582 10.5072 17.4089 10.3854C17.4597 10.2635 17.4858 10.1328 17.4858 10.0008C17.4858 9.86878 17.4597 9.73807 17.4089 9.61622C17.3582 9.49436 17.2838 9.38376 17.19 9.29079C17.0027 9.10454 16.7492 9 16.485 9C16.2209 9 15.9674 9.10454 15.78 9.29079L12.24 12.8308L8.70004 9.29079C8.51268 9.10454 8.25923 9 7.99504 9C7.73086 9 7.4774 9.10454 7.29004 9.29079C7.19736 9.38423 7.12403 9.49505 7.07427 9.61689C7.02451 9.73872 6.99928 9.86919 7.00004 10.0008C6.99928 10.1324 7.02451 10.2629 7.07427 10.3847C7.12403 10.5065 7.19736 10.6174 7.29004 10.7108L11.53 14.9508C11.623 15.0445 11.7336 15.1189 11.8555 15.1697C11.9773 15.2205 12.108 15.2466 12.24 15.2466C12.3721 15.2466 12.5028 15.2205 12.6246 15.1697C12.7465 15.1189 12.8571 15.0445 12.95 14.9508Z" fill="#0957DE"/>
</svg>
